Courier10PitchBT-Bold.sfdir
StartChar: exclam
Encoding: 33 33 1
Width: 602
Flags: W
HStem: -11 164<272 330.5> 192 420<287 313.5>
VStem: 205 192<48.5 95> 236 129<546 551 550 551 546 569.5>
LayerCount: 2
Fore
SplineSet
205 72 m 0xa0
 205 118 243 153 301 153 c 0
 361 153 397 119 397 72 c 0
 397 24 360 -11 301 -11 c 0
 243 -11 205 25 205 72 c 0xa0
236 546 m 2x50
 236 548 236 549 236 551 c 0
 236 588 260 612 300 612 c 0
 341 612 365 588 365 551 c 0
 365 549 365 548 365 546 c 2
 346 229 l 2
 345 209 327 192 300 192 c 0
 274 192 257 209 256 229 c 2
 236 546 l 2x50
EndSplineSet
EndChar
StartChar: dollar
Encoding: 36 36 4
Width: 602
Flags: MW
HStem: 27 89<326 329 326 326.5> 513 80<268 323.5>
VStem: 98 123<432 469.5 432 483.5> 382 127<159 198>
LayerCount: 2
Fore
SplineSet
174 62 m 1
 162 47 151 44 131 44 c 0
 97 44 85 56 85 104 c 2
 85 163 l 2
 85 204 98 223 136 223 c 0
 181 223 181 192 193 167 c 0
 207 137 251 116 305 116 c 0
 354 116 382 140 382 178 c 0
 382 218 354 228 294 251 c 2
 204 286 l 2
 133 313 98 362 98 435 c 0
 98 532 155 585 268 593 c 1
 272 632 l 2
 274 658 290 672 317 672 c 0
 345 672 360 660 360 638 c 0
 360 635 360 633 360 631 c 2
 356 588 l 1
 374 584 391 580 407 574 c 1
 414 590 426 596 447 596 c 0
 477 596 487 579 488 541 c 2
 489 481 l 2
 489 480 489 479 489 478 c 0
 489 446 471 428 436 428 c 0
 412 428 403 437 391 462 c 0
 374 496 341 513 306 513 c 0
 253 513 221 489 221 450 c 0
 221 414 245 401 295 381 c 2
 386 346 l 2
 470 313 509 273 509 193 c 0
 509 86 446 27 329 27 c 0
 328 27 327 27 326 27 c 2
 319 -80 l 2
 317 -110 303 -122 272 -122 c 0
 244 -122 234 -109 234 -82 c 0
 234 -80 234 -77 234 -74 c 2
 241 39 l 1
 217 43 195 51 174 62 c 1
EndSplineSet
EndChar
StartChar: ampersand
Encoding: 38 38 6
Width: 602
Flags: W
HStem: -16 104<229 250.5> 0 89<420 476 429 476> 463 98<265 284.5 218 294.5>
VStem: 57 120<140 173.5> 116 123<422 438 415 474.5>
LayerCount: 2
Fore
SplineSet
316 114 m 1x90
 225 236 l 1
 193 216 177 192 177 161 c 0
 177 119 208 88 250 88 c 0
 272 88 293 97 316 114 c 1x90
376 34 m 1x68
 334 3 278 -16 223 -16 c 0
 123 -16 57 48 57 136 c 0x90
 57 211 91 262 166 313 c 1
 139 356 l 2
 126 378 116 408 116 436 c 0
 116 513 170 561 266 561 c 0
 303 561 333 553 366 531 c 1
 375 533 382 534 387 534 c 0
 408 534 424 516 424 490 c 0
 424 454 396 427 371 427 c 0
 342 427 312 463 277 463 c 0
 253 463 239 449 239 427 c 0
 239 403 252 389 266 369 c 2
 383 205 l 1
 407 280 399 311 450 311 c 2
 468 311 l 2
 475 311 482 311 487 311 c 0
 504 311 524 294 524 263 c 0
 524 233 510 218 478 213 c 1
 472 179 462 148 443 119 c 1
 468 89 l 2
 471 89 473 89 476 89 c 0
 503 89 518 74 518 46 c 0
 518 16 500 0 468 0 c 2
 429 0 l 2
 411 0 400 2 391 14 c 2
 376 34 l 1x68
EndSplineSet
EndChar
StartChar: quotesingle
Encoding: 169 39 103
Width: 602
Flags: MW
HStem: 338 241<276.5 286 286 316>
VStem: 246 110<549 555 554 555 549 563>
LayerCount: 2
Fore
SplineSet
286 338 m 2
 267 338 263 347 261 368 c 2
 246 549 l 2
 246 551 246 553 246 555 c 0
 246 571 254 579 269 579 c 2
 333 579 l 2
 348 579 356 571 356 555 c 0
 356 553 356 551 356 549 c 2
 341 368 l 2
 339 347 335 338 316 338 c 2
 286 338 l 2
EndSplineSet
EndChar
StartChar: parenleft
Encoding: 40 40 8
Width: 602
Flags: MW
HStem: -196 793<414 434>
VStem: 197 129<157.5 250.5 157.5 255>
LayerCount: 2
Fore
SplineSet
427 597 m 0
 441 597 451 586 451 573 c 0
 451 557 429 527 401 476 c 0
 352 386 326 301 326 200 c 0
 326 115 345 36 384 -43 c 0
 419 -114 451 -154 451 -173 c 0
 451 -186 441 -196 427 -196 c 0
 401 -196 358 -166 308 -104 c 0
 234 -11 197 90 197 200 c 0
 197 310 234 412 308 505 c 0
 358 568 401 597 427 597 c 0
EndSplineSet
EndChar
StartChar: parenright
Encoding: 41 41 9
Width: 602
Flags: MW
HStem: -197 794<169 189>
VStem: 278 128<149 242.5>
LayerCount: 2
Fore
SplineSet
176 -197 m 0
 162 -197 152 -186 152 -173 c 0
 152 -157 175 -127 203 -76 c 0
 252 14 278 98 278 200 c 0
 278 285 258 365 219 444 c 0
 184 515 152 554 152 573 c 0
 152 586 162 597 176 597 c 0
 202 597 245 567 295 505 c 0
 369 412 406 310 406 200 c 0
 406 90 369 -11 295 -104 c 0
 245 -167 202 -197 176 -197 c 0
EndSplineSet
EndChar
StartChar: asterisk
Encoding: 42 42 10
Width: 602
Flags: MW
HStem: 198 20 559 20
VStem: 102 398<400.5 404>
LayerCount: 2
Fore
SplineSet
456 479 m 2
 461 481 465 482 468 482 c 0
 475 482 479 476 483 462 c 2
 496 421 l 2
 499 412 500 405 500 403 c 0
 500 398 494 394 484 392 c 2
 353 364 l 1
 443 262 l 2
 448 257 450 253 450 248 c 0
 450 244 444 239 434 232 c 2
 400 207 l 2
 391 200 384 198 382 198 c 0
 378 198 373 202 369 209 c 2
 301 325 l 1
 233 209 l 2
 228 201 223 198 219 198 c 0
 217 198 210 201 201 208 c 2
 167 233 l 2
 157 240 152 246 152 249 c 0
 152 254 154 258 159 263 c 2
 250 363 l 1
 118 392 l 2
 108 394 102 398 102 403 c 0
 102 405 103 412 106 422 c 2
 120 462 l 2
 125 476 127 482 134 482 c 0
 137 482 141 481 146 479 c 2
 268 423 l 1
 254 559 l 2
 254 561 254 563 254 564 c 0
 254 577 261 579 279 579 c 2
 322 579 l 2
 340 579 346 577 346 565 c 0
 346 563 346 561 346 559 c 2
 333 425 l 1
 456 479 l 2
EndSplineSet
EndChar
StartChar: plus
Encoding: 43 43 11
Width: 602
Flags: MW
HStem: 257 102<74 250 90 250 90 351 351 512>
VStem: 250 101<97 257 359 519>
LayerCount: 2
Fore
SplineSet
351 97 m 2
 351 65 331 43 301 43 c 0
 270 43 250 65 250 97 c 2
 250 257 l 1
 90 257 l 2
 58 257 36 278 36 308 c 0
 36 339 58 359 90 359 c 2
 250 359 l 1
 250 519 l 2
 250 551 270 572 300 572 c 0
 331 572 351 551 351 519 c 2
 351 359 l 1
 512 359 l 2
 544 359 566 338 566 308 c 0
 566 277 544 257 512 257 c 2
 351 257 l 1
 351 97 l 2
EndSplineSet
EndChar
StartChar: comma
Encoding: 44 44 12
Width: 602
Flags: MW
HStem: -159 328<233.5 392>
VStem: 171 238
LayerCount: 2
Fore
SplineSet
241 142 m 2
 247 164 253 169 276 169 c 2
 392 169 l 2
 403 169 409 164 409 158 c 0
 409 155 408 150 405 144 c 2
 259 -142 l 2
 254 -153 245 -159 235 -159 c 0
 232 -159 229 -158 225 -157 c 2
 188 -144 l 2
 177 -140 171 -133 171 -125 c 0
 171 -120 171 -116 172 -112 c 2
 241 142 l 2
EndSplineSet
EndChar
StartChar: hyphen
Encoding: 45 45 13
Width: 602
Flags: MW
HStem: 170 111<91 502 97 502>
VStem: 76 449<197 258 189.5 265>
LayerCount: 2
Fore
SplineSet
97 170 m 2
 85 170 76 180 76 197 c 2
 76 258 l 2
 76 272 85 281 97 281 c 2
 502 281 l 2
 517 281 525 273 525 258 c 2
 525 197 l 2
 525 182 514 170 502 170 c 2
 97 170 l 2
EndSplineSet
EndChar
StartChar: period
Encoding: 46 46 14
Width: 602
Flags: MW
HStem: -7 184<270.5 332>
VStem: 199 204<58.5 111.5>
LayerCount: 2
Fore
SplineSet
199 85 m 0
 199 138 240 177 301 177 c 0
 363 177 403 139 403 85 c 0
 403 31 363 -7 301 -7 c 0
 240 -7 199 32 199 85 c 0
EndSplineSet
EndChar
StartChar: zero
Encoding: 48 48 16
Width: 602
Flags: MW
HStem: -16 110<267.5 334 267.5 373> 522 110<268 334>
VStem: 58 131<239 378.5 239 410.5> 413 131<238.5 379>
LayerCount: 2
Fore
SplineSet
300 -16 m 0
 155 -16 58 104 58 308 c 0
 58 513 155 632 300 632 c 0
 446 632 544 512 544 308 c 0
 544 104 446 -16 300 -16 c 0
301 522 m 0
 235 522 189 448 189 309 c 0
 189 169 234 94 301 94 c 0
 367 94 413 168 413 309 c 0
 413 449 367 522 301 522 c 0
EndSplineSet
EndChar
StartChar: one
Encoding: 49 49 17
Width: 602
Flags: MW
HStem: 0 104<145.5 257 166 257 375 454> 613 20<334 353>
VStem: 257 118<104 516 516 516>
LayerCount: 2
Fore
SplineSet
257 516 m 1
 202 502 l 2
 186 498 174 496 169 496 c 0
 142 496 127 514 127 545 c 0
 127 568 143 583 177 592 c 2
 298 625 l 2
 315 630 329 633 339 633 c 0
 367 633 375 618 375 586 c 2
 375 104 l 1
 454 104 l 2
 495 104 516 91 516 52 c 0
 516 12 495 0 454 0 c 2
 166 0 l 2
 125 0 104 12 104 52 c 0
 104 91 125 104 166 104 c 2
 257 104 l 1
 257 516 l 1
EndSplineSet
EndChar
StartChar: two
Encoding: 50 50 18
Width: 602
Flags: MW
HStem: 0 110<236 407 236 472> 525 107<266 307>
VStem: 365 134<417 467>
LayerCount: 2
Fore
SplineSet
501 34 m 2
 500 11 498 0 472 0 c 2
 121 0 l 2
 83 0 62 17 62 47 c 0
 62 72 75 95 102 121 c 2
 301 313 l 2
 343 354 365 396 365 438 c 0
 365 496 336 525 278 525 c 0
 243 525 218 514 203 496 c 0
 183 471 176 437 137 437 c 0
 104 437 88 458 88 501 c 0
 88 544 96 561 127 582 c 0
 179 616 233 632 299 632 c 0
 424 632 499 558 499 448 c 0
 499 372 461 305 384 238 c 2
 236 110 l 1
 407 110 l 1
 407 145 424 162 460 162 c 0
 490 162 505 144 505 116 c 0
 505 114 505 112 505 110 c 2
 501 34 l 2
EndSplineSet
EndChar
StartChar: three
Encoding: 51 51 19
Width: 602
Flags: W
HStem: -17 107<244.5 310 244.5 344.5> 532 100<252 309>
VStem: 357 129<439.5 479.5> 374 127<155 221.5 121.5 223>
LayerCount: 2
Fore
SplineSet
390 335 m 1x60
 466 311 501 262 501 181 c 0
 501 62 417 -17 272 -17 c 0
 149 -17 73 30 73 80 c 0
 73 111 94 134 129 134 c 0
 162 134 210 90 279 90 c 0
 341 90 374 125 374 185 c 0x90
 374 261 341 276 274 279 c 0
 236 280 222 289 222 330 c 0
 222 374 240 371 273 376 c 0
 325 383 357 392 357 454 c 0
 357 505 333 532 285 532 c 0
 219 532 183 487 142 487 c 0
 116 487 100 506 100 531 c 0
 100 583 181 632 300 632 c 0
 417 632 486 566 486 471 c 0
 486 408 456 365 390 335 c 1x60
EndSplineSet
EndChar
StartChar: four
Encoding: 52 52 20
Width: 602
Flags: MW
HStem: 0 93<233.5 325 254 325 431 460> 154 90<92 325 172 325 172 325> 611 20<309.5 317>
VStem: 325 106<93 154 93 154 244 514 514 514>
LayerCount: 2
Fore
SplineSet
325 244 m 1
 325 514 l 1
 172 244 l 1
 325 244 l 1
291 612 m 2
 299 626 304 631 315 631 c 0
 319 631 324 630 329 629 c 2
 416 614 l 2
 426 612 431 604 431 589 c 2
 431 244 l 2
 434 243 436 243 439 243 c 0
 458 243 465 268 483 268 c 0
 509 268 527 254 527 229 c 0
 527 223 526 216 524 210 c 2
 513 174 l 2
 509 160 500 154 486 154 c 2
 431 154 l 1
 431 93 l 1
 460 93 l 2
 501 93 522 81 522 46 c 0
 522 11 501 0 460 0 c 2
 254 0 l 2
 213 0 193 11 193 46 c 0
 193 81 213 93 254 93 c 2
 325 93 l 1
 325 154 l 1
 100 154 l 2
 84 154 74 164 74 184 c 2
 74 214 l 2
 74 230 74 243 86 263 c 2
 291 612 l 2
EndSplineSet
EndChar
StartChar: five
Encoding: 53 53 21
Width: 602
Flags: MW
HStem: -16 108<238 305 238 339.5> 312 100<303 310.5> 507 109<212 445 212 212>
VStem: 94 118<394 394 394 507 394 576> 384 130<166.5 234.5>
LayerCount: 2
Fore
SplineSet
212 394 m 1
 253 406 288 412 318 412 c 0
 435 412 514 328 514 202 c 0
 514 61 424 -16 255 -16 c 0
 134 -16 70 11 70 63 c 0
 70 94 95 120 126 120 c 0
 161 120 208 92 268 92 c 0
 342 92 384 132 384 201 c 0
 384 268 343 312 278 312 c 0
 220 312 182 272 145 272 c 0
 107 272 94 292 94 340 c 2
 94 576 l 2
 94 601 95 616 125 616 c 2
 445 616 l 2
 487 616 499 601 499 561 c 0
 499 521 487 507 445 507 c 2
 212 507 l 1
 212 394 l 1
EndSplineSet
EndChar
StartChar: six
Encoding: 54 54 22
Width: 602
Flags: MW
HStem: -15 95<279.5 333 279.5 368.5> 294 107<309.5 330> 612 20<313 446>
VStem: 78 131<178 220.5 156.5 378> 397 124<153 217>
LayerCount: 2
Fore
SplineSet
207 345 m 1
 238 381 284 401 335 401 c 0
 439 401 521 311 521 193 c 0
 521 71 436 -15 301 -15 c 0
 166 -15 78 88 78 268 c 0
 78 488 212 632 414 632 c 0
 478 632 509 623 509 596 c 0
 509 540 475 553 394 544 c 0
 291 533 234 470 207 345 c 1
209 190 m 0
 209 123 252 80 307 80 c 0
 359 80 397 121 397 185 c 0
 397 249 357 294 303 294 c 0
 250 294 209 251 209 190 c 0
EndSplineSet
EndChar
StartChar: seven
Encoding: 55 55 23
Width: 602
Flags: MW
HStem: -8 20 507 109<148 358 148 148>
VStem: 61 414<487 591>
LayerCount: 2
Fore
SplineSet
146 498 m 2
 143 479 127 462 101 462 c 0
 74 462 61 474 61 500 c 0
 61 504 62 508 62 512 c 2
 71 588 l 2
 73 606 85 616 104 616 c 2
 449 616 l 2
 467 616 475 609 475 591 c 2
 475 564 l 1
 317 14 l 2
 312 -2 305 -8 288 -8 c 2
 198 -8 l 2
 189 -8 181 -1 181 7 c 0
 181 12 181 17 183 22 c 2
 358 507 l 1
 148 507 l 1
 146 498 l 2
EndSplineSet
EndChar
StartChar: eight
Encoding: 56 56 24
Width: 602
Flags: W
HStem: -16 96<270.5 331.5 270.5 369.5> 262 106<272.5 328 272.5 330.5> 540 92<272 328.5>
VStem: 75 126<145.5 198.5> 82 124<429.5 478.5 429.5 509> 395 126<429 478> 401 126<144.5 198>
LayerCount: 2
Fore
SplineSet
190 316 m 1xd2
 116 349 82 394 82 464 c 0
 82 554 168 632 301 632 c 0
 434 632 521 554 521 459 c 0x6c
 521 395 484 346 412 316 c 1
 487 289 527 234 527 166 c 0
 527 61 438 -16 301 -16 c 0
 164 -16 75 63 75 164 c 0
 75 233 115 288 190 316 c 1xd2
206 454 m 0x6c
 206 405 245 368 300 368 c 0
 356 368 395 404 395 454 c 0
 395 502 357 540 300 540 c 0
 244 540 206 503 206 454 c 0x6c
201 171 m 0xd2
 201 120 240 80 301 80 c 0
 362 80 401 118 401 171 c 0
 401 225 360 262 301 262 c 0
 242 262 201 227 201 171 c 0xd2
EndSplineSet
EndChar
StartChar: nine
Encoding: 57 57 25
Width: 602
Flags: MW
HStem: -16 20 215 107<267 287.5> 536 95<264 317.5>
VStem: 76 124<399 463 399 485> 388 131<395.5 438 238 459.5>
LayerCount: 2
Fore
SplineSet
388 426 m 0
 388 493 345 536 290 536 c 0
 238 536 200 495 200 431 c 0
 200 367 240 322 294 322 c 0
 347 322 388 365 388 426 c 0
390 271 m 1
 359 235 313 215 262 215 c 0
 158 215 76 306 76 424 c 0
 76 546 161 631 296 631 c 0
 431 631 519 528 519 348 c 0
 519 128 385 -16 183 -16 c 0
 119 -16 88 -6 88 21 c 0
 88 77 123 63 204 72 c 0
 307 83 363 146 390 271 c 1
EndSplineSet
EndChar
StartChar: colon
Encoding: 58 58 26
Width: 602
Flags: MW
HStem: -7 184<269.5 330.5> 253 184<270.5 331.5>
VStem: 199 204<59.5 112.5>
LayerCount: 2
Fore
SplineSet
199 86 m 0
 199 139 239 177 300 177 c 0
 362 177 403 139 403 86 c 0
 403 32 361 -7 300 -7 c 0
 239 -7 199 33 199 86 c 0
199 346 m 0
 199 399 239 437 301 437 c 0
 363 437 402 399 402 346 c 0
 402 292 362 253 301 253 c 0
 240 253 199 293 199 346 c 0
EndSplineSet
EndChar
StartChar: semicolon
Encoding: 59 59 27
Width: 602
Flags: W
HStem: -159 328<233.5 392> 253 184<267.5 329>
VStem: 171 238 197 203<319.5 372.5>
LayerCount: 2
Fore
SplineSet
197 346 m 0x50
 197 399 237 437 298 437 c 0
 360 437 400 399 400 346 c 0
 400 292 360 253 298 253 c 0
 237 253 197 293 197 346 c 0x50
241 142 m 2xa0
 247 164 253 169 276 169 c 2
 392 169 l 2
 403 169 409 164 409 158 c 0
 409 155 408 150 405 144 c 2
 259 -142 l 2
 254 -153 245 -159 235 -159 c 0
 232 -159 229 -158 225 -157 c 2
 188 -144 l 2
 177 -140 171 -133 171 -125 c 0
 171 -120 171 -116 172 -112 c 2
 241 142 l 2xa0
EndSplineSet
EndChar
StartChar: less
Encoding: 60 60 28
Width: 602
Flags: MW
HStem: 62 490<508 526.5>
VStem: 44 514<101 319.5>
LayerCount: 2
Fore
SplineSet
522 163 m 2
 546 152 558 139 558 116 c 0
 558 86 540 62 513 62 c 0
 503 62 492 66 478 72 c 2
 89 254 l 2
 59 268 44 282 44 307 c 0
 44 332 59 346 89 360 c 2
 478 542 l 2
 492 548 503 552 513 552 c 0
 540 552 558 529 558 499 c 0
 558 476 546 463 522 452 c 2
 212 307 l 1
 522 163 l 2
EndSplineSet
EndChar
StartChar: equal
Encoding: 61 61 29
Width: 602
Flags: MW
HStem: 160 102<74 512 90 512> 354 102<74 512 90 512>
VStem: 36 530<196 226 195.5 226.5 390 420 195.5 420.5>
LayerCount: 2
Fore
SplineSet
90 354 m 2
 58 354 36 375 36 405 c 0
 36 436 58 456 90 456 c 2
 512 456 l 2
 544 456 566 435 566 405 c 0
 566 374 544 354 512 354 c 2
 90 354 l 2
90 160 m 2
 58 160 36 181 36 211 c 0
 36 242 58 262 90 262 c 2
 512 262 l 2
 544 262 566 241 566 211 c 0
 566 180 544 160 512 160 c 2
 90 160 l 2
EndSplineSet
EndChar
StartChar: greater
Encoding: 62 62 30
Width: 602
Flags: MW
HStem: 62 490<75.5 94>
VStem: 44 514<101 319.5 294.5 514>
LayerCount: 2
Fore
SplineSet
79 452 m 2
 55 463 44 476 44 499 c 0
 44 529 62 552 89 552 c 0
 99 552 109 548 123 542 c 2
 513 360 l 2
 543 346 558 332 558 307 c 0
 558 282 543 268 513 254 c 2
 123 72 l 2
 109 66 99 62 89 62 c 0
 62 62 44 86 44 116 c 0
 44 139 55 152 79 163 c 2
 389 307 l 1
 79 452 l 2
EndSplineSet
EndChar
StartChar: question
Encoding: 63 63 31
Width: 602
Flags: W
HStem: -7 155<233.5 292.5> 181 431<250 277.5>
VStem: 168 191<49.5 93> 206 109<223 224 224 252 252 262 210.5 274> 369 126<412.5 467>
LayerCount: 2
Fore
SplineSet
168 71 m 0xa0
 168 115 204 148 263 148 c 0
 322 148 359 116 359 71 c 0
 359 27 322 -7 263 -7 c 0
 204 -7 168 28 168 71 c 0xa0
206 252 m 2x58
 206 296 216 316 264 342 c 0
 320 373 369 381 369 444 c 0
 369 490 336 521 281 521 c 0
 224 521 213 511 207 484 c 0
 201 457 195 438 156 438 c 0
 127 438 115 453 115 486 c 2
 115 548 l 2
 115 583 197 612 303 612 c 0
 423 612 495 544 495 439 c 0
 495 356 433 292 315 262 c 1
 315 224 l 2
 315 197 294 181 261 181 c 0
 226 181 206 198 206 223 c 2
 206 252 l 2x58
EndSplineSet
EndChar
StartChar: at
Encoding: 64 64 32
Width: 602
Flags: MW
HStem: -50 88<283 355.5 283 371.5> 164 82<338.5 341.5> 381 74<355 393> 580 88<267 334.5>
VStem: 67 107<226.5 404.5 226.5 429> 215 88<286 327.5 286 345> 392 106<256 380 380 380>
LayerCount: 2
Fore
SplineSet
392 256 m 1
 392 380 l 1
 387 381 382 381 378 381 c 0
 332 381 303 350 303 305 c 0
 303 267 322 246 355 246 c 0
 363 246 375 249 392 256 c 1
410 184 m 1
 380 171 354 164 329 164 c 0
 264 164 215 218 215 293 c 0
 215 397 274 455 380 455 c 0
 384 455 389 455 393 455 c 1
 393 536 361 580 308 580 c 0
 226 580 174 489 174 320 c 0
 174 133 230 38 336 38 c 0
 375 38 402 55 423 55 c 0
 439 55 451 41 451 15 c 0
 451 -25 408 -50 335 -50 c 0
 163 -50 67 73 67 313 c 0
 67 545 163 668 314 668 c 0
 446 668 498 591 498 433 c 2
 498 250 l 1
 515 233 523 218 523 203 c 0
 523 179 502 160 474 160 c 0
 459 160 438 169 410 184 c 1
EndSplineSet
EndChar
StartChar: A
Encoding: 65 65 33
Width: 602
Flags: MW
HStem: 0 107<48 56 48 56 165 182 400 417> 164 101<220 362 220 397 186 362> 471 108<126.5 331 148 187 291 291>
VStem: -6 615<33.5 71.5>
LayerCount: 2
Fore
SplineSet
165 107 m 1
 182 107 l 2
 223 107 244 95 244 54 c 0
 244 13 223 0 182 0 c 2
 56 0 l 2
 15 0 -6 13 -6 54 c 0
 -6 89 13 107 48 107 c 0
 50 107 53 107 56 107 c 2
 187 471 l 1
 147 471 l 2
 106 471 86 484 86 525 c 0
 86 565 106 579 148 579 c 2
 331 579 l 2
 375 579 379 567 392 531 c 2
 547 107 l 2
 550 107 553 107 555 107 c 0
 590 107 609 89 609 54 c 0
 609 13 588 0 547 0 c 2
 400 0 l 2
 359 0 338 13 338 54 c 0
 338 95 359 107 400 107 c 2
 417 107 l 1
 397 164 l 1
 186 164 l 1
 165 107 l 1
220 265 m 1
 362 265 l 1
 291 471 l 1
 220 265 l 1
EndSplineSet
EndChar
StartChar: B
Encoding: 66 66 34
Width: 602
Flags: W
HStem: 0 104<216 289 289 309 309 336 216 343> 253 98<216 281 281 294 216 281> 474 105<216 297 216 216>
VStem: 95 121<0 104 107 253 351 471 471 471> 391 139<396.5 435> 430 138<149 202 141.5 208.5>
LayerCount: 2
Fore
SplineSet
309 0 m 2xd4
 95 0 l 2
 54 0 34 14 34 54 c 0
 34 89 53 107 87 107 c 0
 90 107 92 107 95 107 c 1
 95 471 l 1
 92 471 90 471 87 471 c 0
 53 471 34 490 34 525 c 0
 34 565 54 579 95 579 c 2
 320 579 l 2
 460 579 530 522 530 422 c 0xf8
 530 371 508 332 465 307 c 1
 536 281 568 237 568 167 c 0
 568 116 546 70 505 39 c 0
 457 3 404 0 343 0 c 0
 332 0 321 0 309 0 c 2xd4
216 351 m 1xfc
 281 351 l 2
 355 351 391 365 391 413 c 0
 391 457 361 474 297 474 c 2
 216 474 l 1
 216 351 l 1xfc
216 104 m 1xd4
 289 104 l 2
 383 104 430 120 430 178 c 0
 430 239 384 253 294 253 c 2
 216 253 l 1
 216 104 l 1xd4
EndSplineSet
EndChar
StartChar: C
Encoding: 67 67 35
Width: 602
Flags: MW
HStem: -16 108<277 373 277 384.5> 488 107<276.5 337.5 230.5 362>
VStem: 31 140<225.5 355 225.5 375.5>
LayerCount: 2
Fore
SplineSet
454 563 m 1
 466 585 478 594 500 594 c 0
 531 594 544 581 544 539 c 2
 545 412 l 2
 545 370 535 355 494 355 c 0
 464 355 453 370 444 401 c 0
 428 458 398 488 326 488 c 0
 227 488 171 420 171 290 c 0
 171 161 227 92 327 92 c 0
 419 92 474 160 518 160 c 0
 543 160 563 136 563 104 c 0
 563 52 452 -16 317 -16 c 0
 145 -16 31 110 31 290 c 0
 31 461 147 595 314 595 c 0
 361 595 406 584 454 563 c 1
EndSplineSet
EndChar
StartChar: D
Encoding: 68 68 36
Width: 602
Flags: MW
HStem: 0 107<87 95 87 95 87 187 87 242> 473 106<221 221>
VStem: 95 126<0 108 108 108 108 471 471 471> 428 140<229.5 348 229.5 352.5>
LayerCount: 2
Fore
SplineSet
221 108 m 1
 231 107 240 107 249 107 c 0
 371 107 428 165 428 291 c 0
 428 414 370 474 250 474 c 0
 241 474 231 474 221 473 c 1
 221 108 l 1
95 0 m 2
 54 0 33 13 33 54 c 0
 33 89 52 107 87 107 c 0
 89 107 92 107 95 107 c 1
 95 471 l 1
 92 471 90 471 87 471 c 0
 52 471 33 490 33 525 c 0
 33 565 53 579 95 579 c 2
 187 579 l 2
 197 579 206 579 216 579 c 0
 309 579 386 577 446 541 c 0
 523 494 568 406 568 290 c 0
 568 169 517 76 430 30 c 0
 379 2 316 0 242 0 c 0
 224 0 206 0 187 0 c 2
 95 0 l 2
EndSplineSet
EndChar
StartChar: E
Encoding: 69 69 37
Width: 602
Flags: MW
HStem: 0 104<214 441 214 495> 250 101<214 299 214 300 214 299> 476 103<214 441 214 214>
VStem: 95 119<0 250 107 250 351 471 471 471> 299 101<351 351> 441 105<104 162 425 476 476 476>
LayerCount: 2
Fore
SplineSet
495 579 m 2
 536 579 546 569 546 534 c 2
 546 425 l 2
 546 383 533 363 494 363 c 0
 454 363 441 384 441 425 c 2
 441 476 l 1
 214 476 l 1
 214 351 l 1
 299 351 l 1
 299 353 299 355 299 357 c 0
 299 394 316 412 349 412 c 0
 386 412 400 392 400 351 c 2
 400 250 l 2
 400 209 387 189 350 189 c 0
 317 189 300 206 300 241 c 0
 300 244 300 247 300 250 c 1
 214 250 l 1
 214 104 l 1
 441 104 l 1
 441 162 l 2
 441 204 455 223 494 223 c 0
 534 223 546 203 546 162 c 2
 546 44 l 2
 546 9 536 0 495 0 c 2
 95 0 l 2
 55 0 35 14 35 54 c 0
 35 88 54 107 87 107 c 0
 90 107 92 107 95 107 c 1
 95 471 l 1
 93 471 90 471 88 471 c 0
 54 471 35 490 35 525 c 0
 35 564 55 579 95 579 c 2
 495 579 l 2
EndSplineSet
EndChar
StartChar: F
Encoding: 70 70 38
Width: 602
Flags: MW
HStem: 0 107<92 100 92 100 219 246> 250 101<219 304 219 304 219 404> 476 103<219 446 219 219>
VStem: 100 119<0 250 107 250 351 471 471 471> 304 100<241 250 248.5 250> 446 105<425 476 476 476>
LayerCount: 2
Fore
SplineSet
500 579 m 2
 541 579 551 569 551 534 c 2
 551 425 l 2
 551 383 537 363 498 363 c 0
 458 363 446 384 446 425 c 2
 446 476 l 1
 219 476 l 1
 219 351 l 1
 304 351 l 1
 304 353 304 355 304 357 c 0
 304 394 321 412 354 412 c 0
 391 412 404 392 404 351 c 2
 404 250 l 2
 404 209 391 189 354 189 c 0
 321 189 304 206 304 241 c 0
 304 244 304 247 304 250 c 1
 219 250 l 1
 219 107 l 1
 246 107 l 2
 286 107 306 94 306 54 c 0
 306 14 286 0 246 0 c 2
 100 0 l 2
 60 0 40 14 40 54 c 0
 40 88 59 107 92 107 c 0
 95 107 97 107 100 107 c 1
 100 471 l 1
 98 471 95 471 93 471 c 0
 59 471 40 490 40 525 c 0
 40 564 60 579 100 579 c 2
 500 579 l 2
EndSplineSet
EndChar
StartChar: G
Encoding: 71 71 39
Width: 602
Flags: MW
HStem: -15 104<276 338.5 276 362.5> 182 108<343.5 540 364 419> 488 107<271.5 332.5 225.5 357>
VStem: 25 141<225 355 225 375.5> 419 121<106 182 182 182>
LayerCount: 2
Fore
SplineSet
449 563 m 1
 461 585 472 594 494 594 c 0
 525 594 539 581 539 539 c 2
 540 412 l 2
 540 370 530 355 489 355 c 0
 459 355 447 370 438 401 c 0
 422 458 393 488 321 488 c 0
 222 488 166 420 166 290 c 0
 166 160 226 89 326 89 c 0
 351 89 382 95 419 106 c 1
 419 182 l 1
 364 182 l 2
 323 182 303 195 303 236 c 0
 303 277 323 290 364 290 c 2
 540 290 l 2
 581 290 602 279 602 237 c 0
 602 202 583 183 548 183 c 0
 545 183 543 183 540 183 c 1
 540 67 l 2
 540 65 540 63 540 61 c 0
 540 43 539 37 523 27 c 0
 496 11 413 -15 312 -15 c 0
 140 -15 25 110 25 290 c 0
 25 461 142 595 309 595 c 0
 356 595 401 584 449 563 c 1
EndSplineSet
EndChar
StartChar: H
Encoding: 72 72 40
Width: 602
Flags: MW
HStem: 0 107<87 95 87 95 87 221 373 381> 251 108<221 381 221 381> 471 108<69.5 221 87 221 221 222.5 221 229 507 508.5 507 515>
VStem: 95 126<0 0 107 251 359 471> 381 126<0 0 107 251 251 251 359 471>
LayerCount: 2
Fore
SplineSet
381 359 m 1
 381 471 l 1
 378 471 376 471 373 471 c 0
 338 471 319 490 319 525 c 0
 319 565 339 579 381 579 c 2
 507 579 l 2
 549 579 567 565 567 525 c 0
 567 490 550 471 515 471 c 0
 512 471 510 471 507 471 c 1
 507 107 l 1
 510 107 513 107 515 107 c 0
 550 107 567 89 567 54 c 0
 567 13 548 0 507 0 c 2
 381 0 l 2
 340 0 319 13 319 54 c 0
 319 89 338 107 373 107 c 0
 375 107 378 107 381 107 c 1
 381 251 l 1
 221 251 l 1
 221 107 l 1
 224 107 227 107 229 107 c 0
 264 107 283 89 283 54 c 0
 283 13 262 0 221 0 c 2
 95 0 l 2
 54 0 34 13 34 54 c 0
 34 89 52 107 87 107 c 0
 89 107 92 107 95 107 c 1
 95 471 l 1
 92 471 90 471 87 471 c 0
 52 471 34 490 34 525 c 0
 34 565 53 579 95 579 c 2
 221 579 l 2
 263 579 283 565 283 525 c 0
 283 490 264 471 229 471 c 0
 226 471 224 471 221 471 c 1
 221 359 l 1
 381 359 l 1
EndSplineSet
EndChar
StartChar: I
Encoding: 73 73 41
Width: 602
Flags: MW
HStem: 0 107<135.5 238 156 238 364 446> 471 107<135.5 446 156 238 364 446 364 364>
VStem: 238 126<107 471 107 471>
LayerCount: 2
Fore
SplineSet
446 578 m 2
 487 578 508 567 508 525 c 0
 508 484 487 471 446 471 c 2
 364 471 l 1
 364 107 l 1
 446 107 l 2
 487 107 507 95 507 54 c 0
 507 16 488 0 446 0 c 2
 156 0 l 2
 115 0 94 13 94 54 c 0
 94 95 115 107 156 107 c 2
 238 107 l 1
 238 471 l 1
 156 471 l 2
 115 471 94 484 94 525 c 0
 94 566 115 578 156 578 c 2
 446 578 l 2
EndSplineSet
EndChar
StartChar: J
Encoding: 74 74 42
Width: 602
Flags: MW
HStem: -15 108<226 290.5 215.5 300> 471 107<248.5 518 269 350>
VStem: 350 127<230 471 471 471>
LayerCount: 2
Fore
SplineSet
518 578 m 2
 559 578 580 567 580 525 c 0
 580 484 559 472 518 472 c 2
 477 472 l 1
 477 201 l 2
 477 198 477 195 477 192 c 0
 477 133 476 86 440 45 c 0
 406 6 343 -15 257 -15 c 0
 195 -15 140 -4 89 20 c 0
 63 32 53 46 53 96 c 2
 53 197 l 2
 53 249 66 272 109 272 c 0
 158 272 153 234 158 191 c 0
 165 125 181 93 250 93 c 0
 331 93 350 136 350 230 c 2
 350 471 l 1
 269 471 l 2
 228 471 207 484 207 525 c 0
 207 566 228 578 269 578 c 2
 518 578 l 2
EndSplineSet
EndChar
StartChar: K
Encoding: 75 75 43
Width: 602
Flags: MW
HStem: 0 107<87 95 87 95 87 221> 471 108<69.5 221 87 221 221 222.5 221 229 502 504>
VStem: 95 126<0 0 107 198 323 471>
LayerCount: 2
Fore
SplineSet
372 474 m 1
 338 478 326 492 326 525 c 0
 326 565 345 579 387 579 c 2
 507 579 l 2
 549 579 568 565 568 525 c 0
 568 489 550 470 513 470 c 0
 510 470 506 471 502 471 c 2
 359 330 l 1
 424 282 464 206 509 107 c 1
 515 108 520 108 525 108 c 0
 563 108 581 90 581 54 c 0
 581 13 561 0 520 0 c 2
 460 0 l 2
 415 0 412 20 389 69 c 0
 360 132 329 190 267 242 c 1
 221 198 l 1
 221 107 l 1
 224 107 227 107 229 107 c 0
 264 107 283 89 283 54 c 0
 283 13 262 0 221 0 c 2
 95 0 l 2
 54 0 33 13 33 54 c 0
 33 89 52 107 87 107 c 0
 89 107 92 107 95 107 c 1
 95 471 l 1
 92 471 90 471 87 471 c 0
 52 471 34 490 34 525 c 0
 34 565 53 579 95 579 c 2
 221 579 l 2
 263 579 283 565 283 525 c 0
 283 490 264 471 229 471 c 0
 226 471 224 471 221 471 c 1
 221 323 l 1
 372 474 l 1
EndSplineSet
EndChar
StartChar: L
Encoding: 76 76 44
Width: 602
Flags: MW
HStem: 0 107<61 124 81 124 247 469> 471 108<61 290 81 124 247 247 247 290>
VStem: 124 123<107 471 107 471> 469 106<107 194>
LayerCount: 2
Fore
SplineSet
81 0 m 2
 41 0 22 14 22 54 c 0
 22 94 41 107 81 107 c 2
 124 107 l 1
 124 471 l 1
 81 471 l 2
 41 471 22 485 22 525 c 0
 22 564 41 579 81 579 c 2
 290 579 l 2
 330 579 350 564 350 525 c 0
 350 485 330 471 290 471 c 2
 247 471 l 1
 247 107 l 1
 469 107 l 1
 469 194 l 2
 469 236 483 256 522 256 c 0
 562 256 575 235 575 194 c 2
 575 44 l 2
 575 9 565 0 524 0 c 2
 81 0 l 2
EndSplineSet
EndChar
StartChar: M
Encoding: 77 77 45
Width: 602
Flags: MW
HStem: 0 107<42 50 42 50 42 160 433 441> 471 108<38.5 140 56 140 537 545 537 538.5>
VStem: -11 623<33.5 71.5>
LayerCount: 2
Fore
SplineSet
395 527 m 2
 408 564 427 579 461 579 c 2
 537 579 l 2
 579 579 599 565 599 525 c 0
 599 490 580 471 545 471 c 0
 542 471 540 471 537 471 c 1
 551 107 l 2
 554 107 557 107 559 107 c 0
 594 107 612 89 612 54 c 0
 612 13 592 0 551 0 c 2
 441 0 l 2
 400 0 380 13 380 54 c 0
 380 89 398 107 433 107 c 0
 435 107 438 107 441 107 c 1
 434 405 l 1
 362 183 l 2
 351 149 332 136 300 136 c 0
 268 136 249 149 238 183 c 2
 167 405 l 1
 160 107 l 1
 163 107 166 107 168 107 c 0
 203 107 221 89 221 54 c 0
 221 13 201 0 160 0 c 2
 50 0 l 2
 9 0 -11 13 -11 54 c 0
 -11 89 7 107 42 107 c 0
 44 107 47 107 50 107 c 2
 64 471 l 1
 61 471 59 471 56 471 c 0
 21 471 2 490 2 525 c 0
 2 565 22 579 64 579 c 2
 140 579 l 2
 174 579 193 564 206 527 c 2
 302 250 l 1
 395 527 l 2
EndSplineSet
EndChar
StartChar: N
Encoding: 78 78 46
Width: 602
Flags: MW
HStem: 0 107<78 86 78 86 198 225> 471 108<62 166 79 166 387 414 526 527 526 533>
VStem: 86 112<0 372 107 372 107 471 107 471> 414 112<202 471>
LayerCount: 2
Fore
SplineSet
414 202 m 1
 414 471 l 1
 387 471 l 2
 347 471 327 485 327 525 c 0
 327 565 347 579 387 579 c 2
 526 579 l 2
 566 579 586 565 586 525 c 0
 586 490 567 471 533 471 c 0
 531 471 528 471 526 471 c 1
 526 28 l 2
 526 -1 523 -7 499 -7 c 2
 450 -7 l 2
 427 -7 413 -6 401 15 c 2
 198 372 l 1
 198 107 l 1
 225 107 l 2
 265 107 285 94 285 54 c 0
 285 14 265 0 225 0 c 2
 86 0 l 2
 46 0 26 14 26 54 c 0
 26 88 45 107 78 107 c 0
 81 107 83 107 86 107 c 1
 86 471 l 1
 84 471 81 471 79 471 c 0
 45 471 26 490 26 525 c 0
 26 564 46 579 86 579 c 2
 166 579 l 2
 168 579 169 579 170 579 c 0
 198 579 208 578 228 541 c 2
 414 202 l 1
EndSplineSet
EndChar
StartChar: O
Encoding: 79 79 47
Width: 602
Flags: MW
HStem: -15 112<261 341.5 261 381> 482 113<260 341.5>
VStem: 25 141<228 352 228 379.5> 436 140<227.5 352.5>
LayerCount: 2
Fore
SplineSet
301 97 m 0
 382 97 436 165 436 290 c 0
 436 415 382 482 301 482 c 0
 219 482 166 414 166 290 c 0
 166 166 221 97 301 97 c 0
576 290 m 0
 576 111 461 -15 301 -15 c 0
 143 -15 25 111 25 290 c 0
 25 469 139 595 301 595 c 0
 461 595 576 468 576 290 c 0
EndSplineSet
EndChar
StartChar: P
Encoding: 80 80 48
Width: 602
Flags: MW
HStem: 0 107<108 116 108 116 235 284> 207 110<235 304 304 318 235 304> 467 112<235 235 235 304>
VStem: 116 119<0 207 107 207 317 467> 420 140<368.5 417.5>
LayerCount: 2
Fore
SplineSet
235 467 m 1
 235 317 l 1
 304 317 l 2
 381 317 420 344 420 393 c 0
 420 442 381 467 304 467 c 2
 235 467 l 1
318 579 m 2
 479 579 560 516 560 398 c 0
 560 273 479 207 318 207 c 2
 235 207 l 1
 235 107 l 1
 284 107 l 2
 324 107 344 94 344 54 c 0
 344 14 324 0 284 0 c 2
 116 0 l 2
 76 0 56 14 56 54 c 0
 56 88 75 107 108 107 c 0
 111 107 113 107 116 107 c 1
 116 471 l 1
 114 471 111 471 109 471 c 0
 75 471 56 490 56 525 c 0
 56 564 76 579 116 579 c 2
 318 579 l 2
EndSplineSet
EndChar
StartChar: Q
Encoding: 81 81 49
Width: 602
Flags: W
HStem: -150 95<435 464 435 485> -119 87<302.5 318.5> -9 106<302.5 341.5 261 382.5> 482 113<260 341.5>
VStem: 25 141<228 352 228 382> 436 140<227.5 352.5>
LayerCount: 2
Fore
SplineSet
301 97 m 0xbc
 382 97 436 165 436 290 c 0
 436 415 382 482 301 482 c 0
 219 482 166 414 166 290 c 0
 166 166 221 97 301 97 c 0xbc
203 9 m 1x7c
 96 48 25 158 25 294 c 0
 25 470 138 595 301 595 c 0
 462 595 576 470 576 294 c 0
 576 117 460 -9 305 -9 c 0
 300 -9 289 -9 272 -8 c 1
 235 -46 l 1
 262 -37 289 -32 316 -32 c 0x7c
 383 -32 421 -55 449 -55 c 0
 479 -55 504 -34 524 -34 c 0
 548 -34 566 -55 566 -83 c 0
 566 -119 518 -150 452 -150 c 0xbc
 389 -150 343 -119 294 -119 c 0
 233 -119 191 -157 162 -157 c 0
 134 -157 112 -136 112 -110 c 0
 112 -90 127 -69 154 -41 c 2
 203 9 l 1x7c
EndSplineSet
EndChar
StartChar: R
Encoding: 82 82 50
Width: 602
Flags: MW
HStem: 0 107<94 102 94 102 94 228> 236 100<228 274 228 228> 474 105<222 304 222 222>
VStem: 102 126<0 0 107 236> 397 140<383.5 430>
LayerCount: 2
Fore
SplineSet
222 336 m 1
 288 336 l 2
 363 336 397 351 397 405 c 0
 397 455 368 474 304 474 c 2
 222 474 l 1
 222 336 l 1
308 214 m 2
 299 228 287 236 274 236 c 2
 228 236 l 1
 228 107 l 1
 231 107 234 107 236 107 c 0
 271 107 289 89 289 54 c 0
 289 13 269 0 228 0 c 2
 102 0 l 2
 61 0 41 14 41 54 c 0
 41 89 60 107 94 107 c 0
 97 107 99 107 102 107 c 1
 102 471 l 1
 99 471 97 471 94 471 c 0
 60 471 41 490 41 525 c 0
 41 565 61 579 102 579 c 2
 327 579 l 2
 467 579 537 523 537 420 c 0
 537 347 497 292 423 266 c 1
 437 258 443 245 451 233 c 2
 531 107 l 1
 536 108 542 108 546 108 c 0
 584 108 603 90 603 54 c 0
 603 13 582 0 541 0 c 2
 481 0 l 2
 448 0 440 11 428 30 c 2
 308 214 l 2
EndSplineSet
EndChar
StartChar: S
Encoding: 83 83 51
Width: 602
Flags: MW
HStem: -15 93<283 337.5 275 384> 499 96<276.5 316.5 227.5 330.5>
VStem: 69 140<401.5 447 401.5 461.5> 403 141<126 180.5>
LayerCount: 2
Fore
SplineSet
161 9 m 1
 150 -10 137 -15 115 -15 c 0
 75 -15 60 -3 59 38 c 2
 56 153 l 2
 56 155 56 156 56 158 c 0
 56 200 70 216 111 216 c 0
 149 216 154 188 172 153 c 0
 198 102 242 78 308 78 c 0
 367 78 403 103 403 149 c 0
 403 212 347 212 237 241 c 0
 127 270 69 307 69 406 c 0
 69 517 161 595 294 595 c 0
 339 595 380 586 422 568 c 1
 433 592 445 595 472 595 c 0
 504 595 512 585 513 543 c 2
 515 449 l 2
 515 447 515 446 515 444 c 0
 515 407 503 392 465 392 c 0
 425 392 421 414 409 438 c 0
 389 477 354 499 307 499 c 0
 246 499 209 467 209 427 c 0
 209 376 265 371 366 350 c 0
 487 325 544 271 544 172 c 0
 544 52 460 -15 308 -15 c 0
 258 -15 212 -10 161 9 c 1
EndSplineSet
EndChar
StartChar: T
Encoding: 84 84 52
Width: 602
Flags: MW
HStem: 0 108<135 238 156 238 364 446> 472 108<136 238 136 136 364 364 364 466>
VStem: 238 126<108 472 108 472>
LayerCount: 2
Fore
SplineSet
156 0 m 2
 114 0 94 16 94 54 c 0
 94 95 115 108 156 108 c 2
 238 108 l 1
 238 472 l 1
 136 472 l 1
 133 373 l 2
 133 370 133 366 133 361 c 0
 133 330 115 311 84 311 c 0
 46 311 31 330 31 369 c 0
 31 370 31 372 31 373 c 2
 36 519 l 2
 38 568 40 580 91 580 c 2
 511 580 l 2
 562 580 564 568 566 519 c 2
 571 373 l 2
 571 372 571 370 571 369 c 0
 571 330 557 311 519 311 c 0
 489 311 470 332 470 352 c 0
 470 355 469 361 469 373 c 2
 466 472 l 1
 364 472 l 1
 364 108 l 1
 446 108 l 2
 487 108 507 95 507 54 c 0
 507 16 488 0 446 0 c 2
 156 0 l 2
EndSplineSet
EndChar
StartChar: U
Encoding: 85 85 53
Width: 602
Flags: MW
HStem: -15 106<264 341 264 385> 471 108<48.5 200 66 200 200 201.5 200 208 528 529.5 528 536>
VStem: 74 126<218 471> 406 122<216 218 218 471>
LayerCount: 2
Fore
SplineSet
74 471 m 1
 71 471 69 471 66 471 c 0
 31 471 12 490 12 525 c 0
 12 565 32 579 74 579 c 2
 200 579 l 2
 242 579 262 565 262 525 c 0
 262 490 243 471 208 471 c 0
 205 471 203 471 200 471 c 1
 200 216 l 2
 200 130 225 91 303 91 c 0
 379 91 406 129 406 216 c 2
 406 471 l 1
 403 471 401 471 398 471 c 0
 363 471 345 490 345 525 c 0
 345 565 364 579 406 579 c 2
 528 579 l 2
 570 579 589 565 589 525 c 0
 589 490 571 471 536 471 c 0
 533 471 531 471 528 471 c 1
 528 218 l 2
 528 59 466 -15 304 -15 c 0
 136 -15 74 56 74 218 c 2
 74 471 l 1
EndSplineSet
EndChar
StartChar: V
Encoding: 86 86 54
Width: 602
Flags: MW
HStem: 0 20 471 108<36 206 53 206 193 193 193 206 419 431 542 543.5 542 550>
VStem: 2 601<507.5 545.5>
LayerCount: 2
Fore
SplineSet
431 471 m 1
 418 471 l 2
 378 471 358 485 358 525 c 0
 358 566 379 579 419 579 c 2
 542 579 l 2
 583 579 603 566 603 525 c 0
 603 490 584 471 550 471 c 0
 547 471 545 471 542 471 c 2
 393 48 l 2
 380 10 375 0 333 0 c 2
 273 0 l 2
 229 0 226 12 213 48 c 2
 61 471 l 2
 58 471 56 471 53 471 c 0
 19 471 2 490 2 525 c 0
 2 566 21 579 61 579 c 2
 206 579 l 2
 246 579 266 565 266 525 c 0
 266 485 246 471 206 471 c 2
 193 471 l 1
 310 125 l 1
 431 471 l 1
EndSplineSet
EndChar
StartChar: W
Encoding: 87 87 55
Width: 602
Flags: MW
HStem: 0 20 471 108<24.5 168 42 168 160 160 160 168 168 173 433 441 551 552.5 551 559>
VStem: -11 623<507.5 545.5>
LayerCount: 2
Fore
SplineSet
299 337 m 1
 213 47 l 2
 203 13 197 0 164 0 c 2
 141 0 l 2
 109 0 101 3 97 41 c 2
 50 471 l 2
 47 471 45 471 42 471 c 0
 7 471 -11 490 -11 525 c 0
 -11 566 9 579 50 579 c 2
 168 579 l 2
 209 579 229 566 229 525 c 0
 229 488 211 471 173 471 c 2
 160 471 l 1
 178 185 l 1
 238 396 l 2
 247 429 268 443 300 443 c 0
 332 443 352 429 362 396 c 2
 424 185 l 1
 441 471 l 1
 428 471 l 2
 390 471 372 488 372 525 c 0
 372 566 392 579 433 579 c 2
 551 579 l 2
 592 579 612 566 612 525 c 0
 612 490 594 471 559 471 c 0
 556 471 554 471 551 471 c 2
 503 41 l 2
 499 3 492 0 460 0 c 2
 437 0 l 2
 403 0 398 13 388 47 c 2
 299 337 l 1
EndSplineSet
EndChar
StartChar: X
Encoding: 88 88 56
Width: 602
Flags: MW
HStem: 0 108<76 103 101 103 101 211 505 507> 471 108<106 108 239 239 483 483>
VStem: 36 537<34 72>
LayerCount: 2
Fore
SplineSet
505 108 m 2
 509 108 513 109 517 109 c 0
 554 109 573 90 573 54 c 0
 573 14 553 0 511 0 c 2
 380 0 l 2
 338 0 318 14 318 54 c 0
 318 89 334 106 370 108 c 1
 295 217 l 1
 218 108 l 1
 255 107 273 90 273 54 c 0
 273 14 253 0 211 0 c 2
 97 0 l 2
 55 0 36 14 36 54 c 0
 36 90 54 109 91 109 c 0
 95 109 99 108 103 108 c 2
 238 291 l 1
 108 471 l 2
 104 471 100 470 96 470 c 0
 59 470 40 489 40 525 c 0
 40 565 60 579 102 579 c 2
 227 579 l 2
 269 579 289 565 289 525 c 0
 289 492 272 473 239 471 c 1
 305 378 l 1
 369 471 l 1
 337 474 321 493 321 525 c 0
 321 565 340 579 382 579 c 2
 491 579 l 2
 533 579 553 565 553 525 c 0
 553 489 534 470 497 470 c 0
 492 470 488 470 483 471 c 1
 361 302 l 1
 505 108 l 2
EndSplineSet
EndChar
StartChar: Y
Encoding: 89 89 57
Width: 602
Flags: MW
HStem: 0 107<153.5 238 174 238 364 427> 471 108<74 227 91 227 229 230 229 234 495 496.5 495 503>
VStem: 238 126<107 213 213 213>
LayerCount: 2
Fore
SplineSet
99 471 m 2
 96 471 94 471 91 471 c 0
 57 471 39 490 39 525 c 0
 39 566 59 579 99 579 c 2
 227 579 l 2
 263 579 281 566 281 525 c 0
 281 489 265 471 234 471 c 0
 232 471 231 471 229 471 c 1
 305 312 l 1
 378 471 l 1
 377 471 376 471 376 471 c 2
 346 471 331 490 331 525 c 0
 331 566 348 579 384 579 c 2
 495 579 l 2
 536 579 555 566 555 525 c 0
 555 490 537 471 503 471 c 0
 500 471 498 471 495 471 c 2
 364 227 l 1
 364 107 l 1
 428 107 l 2
 469 107 489 95 489 54 c 0
 489 16 469 0 427 0 c 2
 174 0 l 2
 133 0 113 13 113 54 c 0
 113 95 133 107 174 107 c 2
 238 107 l 1
 238 213 l 1
 99 471 l 2
EndSplineSet
EndChar
StartChar: Z
Encoding: 90 90 58
Width: 602
Flags: MW
HStem: 0 108<237 401 237 446> 472 107<194 194 194 345>
VStem: 69 442
LayerCount: 2
Fore
SplineSet
194 472 m 1
 191 403 l 2
 189 359 175 341 135 341 c 0
 100 341 83 360 83 397 c 0
 83 399 83 401 83 403 c 2
 88 519 l 2
 90 571 92 579 146 579 c 2
 457 579 l 2
 492 579 511 559 511 532 c 0
 511 516 506 499 498 488 c 2
 237 108 l 1
 401 108 l 1
 401 187 l 2
 401 231 419 249 457 249 c 0
 492 249 509 230 509 193 c 0
 509 191 509 189 509 187 c 2
 503 61 l 2
 501 13 501 0 446 0 c 2
 123 0 l 2
 89 0 69 20 69 47 c 0
 69 64 75 79 82 90 c 2
 345 472 l 1
 194 472 l 1
EndSplineSet
EndChar
StartChar: bracketleft
Encoding: 91 91 59
Width: 602
Flags: MW
HStem: -181 77<232 393 320 393 393 394> 503 76<320 393 320 320>
VStem: 205 115<-104 503 -104 547 -104 556>
LayerCount: 2
Fore
SplineSet
244 -181 m 2
 220 -181 205 -167 205 -149 c 2
 205 547 l 2
 205 565 220 579 244 579 c 2
 394 579 l 2
 415 579 427 565 427 541 c 0
 427 517 414 503 393 503 c 2
 320 503 l 1
 320 -104 l 1
 393 -104 l 2
 414 -104 427 -119 427 -143 c 0
 427 -167 415 -181 394 -181 c 2
 244 -181 l 2
EndSplineSet
EndChar
StartChar: backslash
Encoding: 92 92 60
Width: 602
Flags: MW
HStem: -57 20 682 20<148.5 172.5>
VStem: 104 408
LayerCount: 2
Fore
SplineSet
403 -6 m 2
 118 607 l 2
 110 624 104 638 104 653 c 0
 104 684 136 702 161 702 c 0
 184 702 197 683 212 650 c 2
 497 38 l 2
 505 21 512 7 512 -8 c 0
 512 -39 479 -57 454 -57 c 0
 431 -57 418 -39 403 -6 c 2
EndSplineSet
EndChar
StartChar: bracketright
Encoding: 93 93 61
Width: 602
Flags: MW
HStem: -181 77<170.5 255 182 255 182 331> 503 76<181 182 182 255>
VStem: 255 115<-104 503 503 503>
LayerCount: 2
Fore
SplineSet
331 579 m 2
 355 579 370 565 370 547 c 2
 370 -149 l 2
 370 -167 355 -181 331 -181 c 2
 181 -181 l 2
 160 -181 148 -167 148 -143 c 0
 148 -119 161 -104 182 -104 c 2
 255 -104 l 1
 255 503 l 1
 182 503 l 2
 161 503 148 517 148 541 c 0
 148 565 160 579 181 579 c 2
 331 579 l 2
EndSplineSet
EndChar
StartChar: underscore
Encoding: 95 95 63
Width: 602
Flags: MW
HStem: -309 102<-6 602 0 602>
VStem: -22 647<-280 -233 -288.5 -225>
LayerCount: 2
Fore
SplineSet
602 -207 m 2
 617 -207 625 -216 625 -233 c 2
 625 -280 l 2
 625 -297 613 -309 602 -309 c 2
 0 -309 l 2
 -12 -309 -22 -299 -22 -280 c 2
 -22 -233 l 2
 -22 -217 -12 -207 0 -207 c 2
 602 -207 l 2
EndSplineSet
EndChar
StartChar: grave
Encoding: 193 96 123
Width: 602
Flags: MW
HStem: 493 176
VStem: 121 285<531 605>
LayerCount: 2
Fore
SplineSet
406 531 m 1
 389 493 l 1
 134 584 l 2
 127 587 121 595 121 604 c 0
 121 606 122 609 123 612 c 2
 143 654 l 2
 148 664 156 669 166 669 c 0
 168 669 171 668 173 667 c 2
 406 531 l 1
EndSplineSet
EndChar
StartChar: a
Encoding: 97 97 65
Width: 602
Flags: W
HStem: -12 98<235.5 251> 0 107<438.5 508 454 508> 212 76<263 290 202.5 312> 377 87<267 325.5>
VStem: 52 132<123.5 163.5 123.5 182.5> 382 118<126 201 201 201 278 287 285.5 288>
LayerCount: 2
Fore
SplineSet
500 288 m 2xbc
 500 107 l 1
 503 107 505 107 508 107 c 0
 543 107 562 88 562 53 c 0
 562 14 542 0 500 0 c 2
 454 0 l 2x64
 423 0 409 9 398 43 c 1
 344 7 282 -12 220 -12 c 0
 115 -12 52 43 52 134 c 0
 52 231 132 288 273 288 c 0
 307 288 343 285 382 278 c 1
 382 281 382 284 382 287 c 0
 382 346 353 377 298 377 c 0
 236 377 190 329 144 329 c 0
 109 329 91 349 91 378 c 0
 91 429 170 464 306 464 c 0
 453 464 500 408 500 288 c 2xbc
382 126 m 1xbc
 382 201 l 1
 351 208 324 212 300 212 c 0
 226 212 184 187 184 140 c 0
 184 107 211 86 260 86 c 0
 305 86 344 99 382 126 c 1xbc
EndSplineSet
EndChar
StartChar: b
Encoding: 98 98 66
Width: 602
Flags: W
HStem: -12 104<303.5 353 289 403> 0 107<84 92 84 92 84 167> 347 104<312 352.5> 531 108<66.5 183 84 183>
VStem: 92 120<407 531 531 531 407 639> 432 135<182.5 257.5>
LayerCount: 2
Fore
SplineSet
196 53 m 1xbc
 196 21 l 2
 196 8 186 0 167 0 c 2
 92 0 l 2
 51 0 31 13 31 54 c 0
 31 89 49 107 84 107 c 0
 86 107 89 107 92 107 c 1x48
 92 531 l 1
 89 531 87 531 84 531 c 0
 49 531 31 550 31 585 c 0
 31 626 51 639 92 639 c 2
 183 639 l 2
 204 639 212 630 212 607 c 2
 212 407 l 1
 242 435 288 451 336 451 c 0
 471 451 567 349 567 216 c 0
 567 84 471 -12 335 -12 c 0
 272 -12 226 10 196 53 c 1xbc
321 92 m 0xbc
 385 92 432 145 432 220 c 0
 432 295 384 347 321 347 c 0
 258 347 210 295 210 220 c 0
 210 145 257 92 321 92 c 0xbc
EndSplineSet
EndChar
StartChar: c
Encoding: 99 99 67
Width: 602
Flags: MW
HStem: -12 103<275.5 369 275.5 378> 359 104<271.5 328 226.5 341>
VStem: 44 136<186.5 264 186.5 292>
LayerCount: 2
Fore
SplineSet
446 425 m 1
 455 451 471 464 496 464 c 0
 534 464 544 440 544 392 c 2
 544 312 l 2
 544 273 530 254 495 254 c 0
 469 254 455 267 439 294 c 0
 413 338 372 359 310 359 c 0
 233 359 180 302 180 226 c 0
 180 147 232 91 319 91 c 0
 419 91 463 155 503 155 c 0
 527 155 546 135 546 106 c 0
 546 49 446 -12 310 -12 c 0
 148 -12 44 90 44 225 c 0
 44 359 151 463 302 463 c 0
 354 463 401 450 446 425 c 1
EndSplineSet
EndChar
StartChar: d
Encoding: 100 100 68
Width: 602
Flags: W
HStem: -12 104<248 290.5> 0 107<424.5 517 434 517> 347 105<248.5 284.5 195.5 311.5> 531 108<307.5 480 328 393>
VStem: 34 135<182.5 257.5 182.5 282.5> 393 116<407 531 531 531>
LayerCount: 2
Fore
SplineSet
328 531 m 2xbc
 287 531 266 544 266 585 c 0
 266 626 287 639 328 639 c 2
 480 639 l 2
 503 639 509 631 509 607 c 2
 509 107 l 1
 512 107 515 107 517 107 c 0
 552 107 570 89 570 54 c 0
 570 13 550 0 509 0 c 2
 434 0 l 2x54
 415 0 405 8 405 21 c 2
 405 55 l 1
 372 12 322 -12 259 -12 c 0
 133 -12 34 84 34 216 c 0
 34 349 132 452 259 452 c 0
 310 452 357 436 393 407 c 1
 393 531 l 1
 328 531 l 2xbc
280 92 m 0
 344 92 391 145 391 220 c 0
 391 295 343 347 280 347 c 0
 217 347 169 295 169 220 c 0
 169 145 216 92 280 92 c 0
EndSplineSet
EndChar
StartChar: e
Encoding: 101 101 69
Width: 602
Flags: MW
HStem: -12 101<273.5 366.5 273.5 381.5> 197 76<168 431 168 431 168 483> 368 94<263.5 335.5>
VStem: 44 124<197 197 197 273 197 292.5> 431 123<273 273>
LayerCount: 2
Fore
SplineSet
168 197 m 1
 185 124 233 89 314 89 c 0
 419 89 466 148 502 148 c 0
 528 148 546 129 546 100 c 0
 546 44 453 -12 310 -12 c 0
 149 -12 44 90 44 225 c 0
 44 360 148 462 310 462 c 0
 458 462 554 361 554 247 c 0
 554 204 534 197 483 197 c 2
 168 197 l 1
168 273 m 1
 431 273 l 1
 420 334 372 368 299 368 c 0
 228 368 185 337 168 273 c 1
EndSplineSet
EndChar
StartChar: f
Encoding: 102 102 70
Width: 602
Flags: MW
HStem: 0 107<138.5 212 159 212 332 429> 330 107<138.5 212 159 212 332 437> 545 96<382.5 426.5>
VStem: 212 120<107 330 107 330 107 437>
LayerCount: 2
Fore
SplineSet
212 330 m 1
 159 330 l 2
 118 330 98 343 98 384 c 0
 98 425 118 437 159 437 c 2
 212 437 l 1
 211 447 211 456 211 465 c 0
 211 595 274 641 429 641 c 0
 510 641 549 624 549 581 c 0
 549 555 532 536 500 536 c 0
 468 536 439 545 414 545 c 0
 351 545 332 519 332 453 c 0
 332 448 332 443 332 437 c 1
 437 437 l 2
 478 437 499 425 499 384 c 0
 499 343 478 330 437 330 c 2
 332 330 l 1
 332 107 l 1
 429 107 l 2
 470 107 491 95 491 54 c 0
 491 13 470 0 429 0 c 2
 159 0 l 2
 118 0 98 13 98 54 c 0
 98 95 118 107 159 107 c 2
 212 107 l 1
 212 330 l 1
EndSplineSet
EndChar
StartChar: g
Encoding: 103 103 71
Width: 602
Flags: W
HStem: -196 109<246 318 246 350> 17 98<248 281> 344 107<509 517 509 510.5> 360 103<248 295 198.5 312>
VStem: 34 135<201.5 273 201.5 301.5> 391 118<201.5 273>
LayerCount: 2
Fore
SplineSet
280 115 m 0xdc
 344 115 391 166 391 237 c 0
 391 309 344 360 280 360 c 0
 216 360 169 309 169 237 c 0
 169 166 216 115 280 115 c 0xdc
509 8 m 2x24
 509 -134 436 -196 264 -196 c 0
 159 -196 110 -176 110 -131 c 0
 110 -100 130 -78 165 -78 c 0
 185 -78 219 -87 273 -87 c 0
 363 -87 395 -59 395 34 c 0
 395 41 394 48 394 56 c 1
 350 30 306 17 256 17 c 0
 125 17 34 108 34 236 c 0
 34 367 131 463 266 463 c 0xdc
 324 463 368 445 401 406 c 1
 401 431 l 2
 401 444 410 451 429 451 c 2
 509 451 l 2
 550 451 570 439 570 398 c 0
 570 363 552 344 517 344 c 0
 514 344 512 344 509 344 c 1
 509 8 l 2x24
EndSplineSet
EndChar
StartChar: h
Encoding: 104 104 72
Width: 602
Flags: MW
HStem: 0 107<93 101 93 101 93 222 377 385> 360 103<315.5 344.5> 531 108<75.5 193 93 193>
VStem: 101 121<0 0 107 249 402 531 531 531> 385 121<0 0 107 249 249 285.5>
LayerCount: 2
Fore
SplineSet
506 107 m 1
 509 107 512 107 514 107 c 0
 549 107 567 89 567 54 c 0
 567 13 547 0 506 0 c 2
 385 0 l 2
 344 0 324 13 324 54 c 0
 324 89 342 107 377 107 c 0
 379 107 382 107 385 107 c 1
 385 249 l 2
 385 322 372 360 317 360 c 0
 270 360 222 318 222 249 c 2
 222 107 l 1
 225 107 228 107 230 107 c 0
 265 107 283 89 283 54 c 0
 283 13 263 0 222 0 c 2
 101 0 l 2
 60 0 40 13 40 54 c 0
 40 89 58 107 93 107 c 0
 95 107 98 107 101 107 c 1
 101 531 l 1
 98 531 96 531 93 531 c 0
 58 531 40 550 40 585 c 0
 40 626 60 639 101 639 c 2
 193 639 l 2
 216 639 222 631 222 607 c 2
 222 402 l 1
 246 442 287 463 344 463 c 0
 445 463 506 405 506 289 c 2
 506 107 l 1
EndSplineSet
EndChar
StartChar: i
Encoding: 105 105 73
Width: 602
Flags: W
HStem: 0 107<123.5 249 144 249 369 474> 344 107<173.5 341 194 249> 519 153<273.5 325.5>
VStem: 238 120<561.5 617> 249 120<107 344 344 344>
LayerCount: 2
Fore
SplineSet
238 578 m 0x30
 238 656 247 672 299 672 c 0
 353 672 358 654 358 593 c 0
 358 530 353 519 298 519 c 0
 249 519 238 528 238 578 c 0x30
341 451 m 2xc8
 359 451 369 443 369 430 c 2
 369 107 l 1
 474 107 l 2
 515 107 536 95 536 54 c 0
 536 13 515 0 474 0 c 2
 144 0 l 2
 103 0 82 13 82 54 c 0
 82 95 103 107 144 107 c 2
 249 107 l 1
 249 344 l 1
 194 344 l 2
 153 344 133 357 133 398 c 0
 133 439 153 451 194 451 c 2
 341 451 l 2xc8
EndSplineSet
EndChar
StartChar: j
Encoding: 106 106 74
Width: 602
Flags: W
HStem: -195 105<196.5 256.5 196.5 279> 344 107<121.5 397 142 305> 519 153<309.5 361 308 361.5>
VStem: 273 120<561.5 617> 305 120<56 344 344 344>
LayerCount: 2
Fore
SplineSet
273 578 m 0x30
 273 656 282 672 334 672 c 0
 388 672 393 654 393 593 c 0
 393 530 389 519 334 519 c 0
 285 519 273 528 273 578 c 0x30
425 8 m 2xc8
 425 -128 353 -195 205 -195 c 0
 102 -195 64 -176 64 -127 c 0
 64 -97 82 -80 112 -80 c 0
 140 -80 176 -90 217 -90 c 0
 296 -90 305 -42 305 56 c 2
 305 344 l 1
 142 344 l 2
 101 344 80 357 80 398 c 0
 80 439 101 451 142 451 c 2
 397 451 l 2
 415 451 425 443 425 430 c 2
 425 8 l 2xc8
EndSplineSet
EndChar
StartChar: k
Encoding: 107 107 75
Width: 602
Flags: MW
HStem: 0 107<98 106 98 106 98 194 500 502> 358 93<325 468> 531 108<81 194 98 194>
VStem: 106 116<0 32 107 133 265 531 531 531>
LayerCount: 2
Fore
SplineSet
325 358 m 1
 304 365 300 375 300 397 c 0
 300 441 319 451 360 451 c 2
 468 451 l 2
 510 451 529 439 529 398 c 0
 529 366 517 358 488 352 c 0
 451 344 431 329 406 303 c 2
 371 267 l 1
 500 107 l 2
 504 107 509 108 512 108 c 0
 550 108 569 90 569 54 c 0
 569 13 548 0 507 0 c 2
 387 0 l 2
 347 0 327 13 327 43 c 0
 327 68 336 81 363 91 c 1
 283 188 l 1
 222 133 l 1
 222 32 l 2
 222 9 217 0 194 0 c 2
 106 0 l 2
 65 0 46 13 46 54 c 0
 46 89 64 107 98 107 c 0
 101 107 103 107 106 107 c 1
 106 531 l 1
 103 531 101 531 98 531 c 0
 64 531 46 550 46 585 c 0
 46 626 65 639 106 639 c 2
 194 639 l 2
 217 639 222 630 222 607 c 2
 222 265 l 1
 325 358 l 1
EndSplineSet
EndChar
StartChar: l
Encoding: 108 108 76
Width: 602
Flags: MW
HStem: 0 107<114.5 240 135 240 361 466> 531 108<165.5 332 186 240>
VStem: 240 121<107 531 531 531>
LayerCount: 2
Fore
SplineSet
240 531 m 1
 186 531 l 2
 145 531 124 544 124 585 c 0
 124 626 145 639 186 639 c 2
 332 639 l 2
 350 639 361 631 361 618 c 2
 361 107 l 1
 466 107 l 2
 507 107 527 95 527 54 c 0
 527 13 507 0 466 0 c 2
 135 0 l 2
 94 0 74 13 74 54 c 0
 74 95 94 107 135 107 c 2
 240 107 l 1
 240 531 l 1
EndSplineSet
EndChar
StartChar: m
Encoding: 109 109 77
Width: 602
Flags: W
HStem: 0 107<39 46 39 46 39 157> 344 107<24 112 39 112> 362 101<193.5 264.5 417 424>
VStem: 46 111<0 0 107 278> 248 111<107 278> 450 112<107 292>
LayerCount: 2
Fore
SplineSet
562 292 m 2xac
 562 107 l 1
 565 107 567 107 569 107 c 0
 599 107 615 89 615 54 c 0
 615 13 598 0 562 0 c 2
 479 0 l 2
 461 0 450 8 450 21 c 2
 450 297 l 2
 450 341 437 362 411 362 c 0
 380 362 359 334 359 278 c 2
 359 107 l 1
 362 107 364 107 366 107 c 0
 397 107 413 89 413 54 c 0
 413 13 395 0 359 0 c 2
 277 0 l 2
 259 0 248 8 248 21 c 2
 248 297 l 2
 248 341 235 362 209 362 c 0xac
 178 362 157 334 157 278 c 2
 157 107 l 1
 160 107 162 107 164 107 c 0
 195 107 211 89 211 54 c 0
 211 13 193 0 157 0 c 2
 46 0 l 2
 10 0 -7 14 -7 54 c 0
 -7 89 9 107 39 107 c 0
 41 107 43 107 46 107 c 1
 46 344 l 1
 44 344 41 344 39 344 c 0
 9 344 -7 363 -7 398 c 0
 -7 438 10 451 46 451 c 2
 112 451 l 2xd0
 138 451 146 442 146 417 c 0
 146 415 146 414 146 412 c 1
 170 446 204 463 246 463 c 0
 283 463 311 449 332 418 c 1
 360 448 397 463 437 463 c 0
 534 463 562 404 562 292 c 2xac
EndSplineSet
EndChar
StartChar: n
Encoding: 110 110 78
Width: 602
Flags: W
HStem: 0 108<96 102 96 102 96 223 380 386> 344 107<76.5 185 94 185> 357 106<320 343>
VStem: 102 121<0 0 108 249> 386 120<0 0 108 249 249 271>
LayerCount: 2
Fore
SplineSet
506 108 m 1xa8
 508 108 510 108 512 108 c 0
 549 108 567 90 567 54 c 0
 567 14 548 0 506 0 c 2
 386 0 l 2
 344 0 324 14 324 54 c 0
 324 90 343 108 380 108 c 0
 382 108 384 108 386 108 c 1
 386 249 l 2
 386 320 371 357 315 357 c 0xa8
 264 357 223 318 223 249 c 2
 223 108 l 1
 225 108 227 108 229 108 c 0
 266 108 284 90 284 54 c 0
 284 14 265 0 223 0 c 2
 102 0 l 2
 60 0 41 14 41 54 c 0
 41 90 59 108 96 108 c 0
 98 108 100 108 102 108 c 1
 102 344 l 1
 99 344 96 344 94 344 c 0
 59 344 41 362 41 397 c 0
 41 438 61 451 102 451 c 2
 185 451 l 2xd0
 204 451 213 443 213 430 c 2
 213 392 l 1
 244 439 289 463 351 463 c 0
 457 463 506 399 506 271 c 2
 506 108 l 1xa8
EndSplineSet
EndChar
StartChar: o
Encoding: 111 111 79
Width: 602
Flags: MW
HStem: -12 103<263 339.5 263 382> 359 103<262.5 340>
VStem: 34 136<187 264.5 187 292.5> 431 136<187.5 264.5>
LayerCount: 2
Fore
SplineSet
567 225 m 0
 567 90 463 -12 301 -12 c 0
 139 -12 34 90 34 225 c 0
 34 360 139 462 301 462 c 0
 463 462 567 360 567 225 c 0
301 91 m 0
 378 91 431 149 431 226 c 0
 431 303 379 359 301 359 c 0
 224 359 170 303 170 226 c 0
 170 148 225 91 301 91 c 0
EndSplineSet
EndChar
StartChar: p
Encoding: 112 112 80
Width: 602
Flags: W
HStem: -194 107<42.5 92 63 92 208 270> 3 102<315 352.5 289 405> 344 107<66.5 167 84 167> 359 104<305.5 353>
VStem: 92 116<-87 46 -87 344> 432 134<194.5 269.5>
LayerCount: 2
Fore
SplineSet
270 -87 m 2xdc
 311 -87 331 -100 331 -141 c 0
 331 -182 311 -194 270 -194 c 2
 63 -194 l 2
 22 -194 2 -182 2 -141 c 0
 2 -100 22 -87 63 -87 c 2
 92 -87 l 1
 92 344 l 1
 89 344 87 344 84 344 c 0
 49 344 31 363 31 398 c 0
 31 439 51 451 92 451 c 2
 167 451 l 2xa8
 186 451 195 444 195 431 c 2
 195 396 l 1
 228 440 276 463 335 463 c 0
 470 463 566 366 566 238 c 0
 566 101 469 3 341 3 c 0
 289 3 242 18 208 46 c 1
 208 -87 l 1
 270 -87 l 2xdc
210 232 m 0
 210 157 257 105 321 105 c 0
 384 105 432 157 432 232 c 0
 432 307 385 359 321 359 c 0
 257 359 210 307 210 232 c 0
EndSplineSet
EndChar
StartChar: q
Encoding: 113 113 81
Width: 602
Flags: W
HStem: -194 107<310.5 393 331 393 509 537> 3 102<248.5 285> 344 107<509 517 509 510.5> 359 104<248 295.5 198.5 312>
VStem: 34 135<194.5 269.5 194.5 302> 393 116<-87 46 46 46>
LayerCount: 2
Fore
SplineSet
331 -87 m 2xa4
 393 -87 l 1
 393 46 l 1
 359 18 311 3 259 3 c 0
 131 3 34 101 34 238 c 0
 34 366 131 463 266 463 c 0xdc
 325 463 373 440 406 396 c 1
 406 431 l 2
 406 444 415 451 434 451 c 2
 509 451 l 2
 550 451 570 439 570 398 c 0
 570 363 552 344 517 344 c 0
 514 344 512 344 509 344 c 1
 509 -87 l 1
 537 -87 l 2
 578 -87 599 -100 599 -141 c 0
 599 -182 578 -194 537 -194 c 2
 331 -194 l 2
 290 -194 269 -182 269 -141 c 0
 269 -100 290 -87 331 -87 c 2xa4
280 105 m 0xfc
 344 105 391 157 391 232 c 0
 391 307 344 359 280 359 c 0
 216 359 169 307 169 232 c 0
 169 157 217 105 280 105 c 0xfc
EndSplineSet
EndChar
StartChar: r
Encoding: 114 114 82
Width: 602
Flags: W
HStem: 0 107<100.5 158 121 158 279 394> 344 107<116.5 241 137 158> 351 113<393.5 501>
VStem: 158 121<107 265>
LayerCount: 2
Fore
SplineSet
279 107 m 1xb0
 394 107 l 2
 435 107 455 95 455 54 c 0
 455 13 435 0 394 0 c 2
 121 0 l 2
 80 0 59 13 59 54 c 0
 59 95 80 107 121 107 c 2
 158 107 l 1
 158 344 l 1
 137 344 l 2
 96 344 76 357 76 398 c 0
 76 439 96 451 137 451 c 2
 241 451 l 2xd0
 259 451 269 443 269 430 c 2
 269 358 l 1
 335 429 391 464 468 464 c 0
 534 464 572 431 572 384 c 0
 572 346 543 319 503 319 c 0
 463 319 436 351 409 351 c 0
 378 351 335 322 279 265 c 1
 279 107 l 1xb0
EndSplineSet
EndChar
StartChar: s
Encoding: 115 115 83
Width: 602
Flags: MW
HStem: -12 83<294 346.5 294 385.5> 382 81<258.5 292 208 329>
VStem: 78 127<314 349 314 364.5> 398 129<107 143>
LayerCount: 2
Fore
SplineSet
172 6 m 1
 154 -7 137 -14 119 -14 c 0
 87 -14 80 5 80 39 c 2
 80 105 l 2
 80 148 93 164 128 164 c 0
 170 164 169 136 193 114 c 0
 226 85 267 71 321 71 c 0
 372 71 398 94 398 120 c 0
 398 166 352 166 246 181 c 0
 133 197 78 241 78 319 c 0
 78 410 146 463 270 463 c 0
 314 463 358 456 404 442 c 1
 417 458 433 466 452 466 c 0
 479 466 492 449 492 416 c 2
 492 356 l 2
 492 328 476 312 450 312 c 0
 401 312 373 382 285 382 c 0
 232 382 205 363 205 335 c 0
 205 293 245 297 333 284 c 0
 458 266 527 237 527 141 c 0
 527 46 454 -12 317 -12 c 0
 266 -12 219 -7 172 6 c 1
EndSplineSet
EndChar
StartChar: t
Encoding: 116 116 84
Width: 602
Flags: MW
HStem: -10 110<311 374.5 311 385.5> 317 107<80.5 147 101 147 267 416>
VStem: 147 120<181 192 192 317 424 538>
LayerCount: 2
Fore
SplineSet
101 317 m 2
 60 317 40 330 40 371 c 0
 40 412 60 424 101 424 c 2
 147 424 l 1
 147 538 l 2
 147 550 147 556 147 558 c 0
 147 578 168 599 206 599 c 0
 252 599 267 580 267 538 c 2
 267 424 l 1
 416 424 l 2
 457 424 478 412 478 371 c 0
 478 330 457 317 416 317 c 2
 267 317 l 1
 267 192 l 2
 267 128 282 100 340 100 c 0
 409 100 457 144 499 144 c 0
 525 144 548 122 548 88 c 0
 548 44 446 -10 325 -10 c 0
 256 -10 205 10 177 43 c 0
 148 77 147 122 147 181 c 0
 147 184 147 188 147 192 c 2
 147 317 l 1
 101 317 l 2
EndSplineSet
EndChar
StartChar: u
Encoding: 117 117 85
Width: 602
Flags: W
HStem: -11 105<258 281> 0 107<406.5 506 416 506> 344 107<68.5 187 86 187>
VStem: 94 120<181 203 203 344 344 344> 378 120<203 344 344 344>
LayerCount: 2
Fore
SplineSet
498 107 m 1x68
 501 107 504 107 506 107 c 0
 541 107 559 89 559 54 c 0
 559 13 539 0 498 0 c 2
 416 0 l 2x68
 397 0 387 9 387 22 c 2
 387 59 l 1
 356 12 312 -11 250 -11 c 0
 144 -11 94 53 94 181 c 2
 94 344 l 1
 91 344 89 344 86 344 c 0
 51 344 33 363 33 398 c 0
 33 439 54 451 95 451 c 2
 187 451 l 2
 205 451 214 443 214 430 c 2
 214 203 l 2
 214 132 230 94 286 94 c 0xb0
 337 94 378 134 378 203 c 2
 378 344 l 1
 375 344 373 344 370 344 c 0
 335 344 316 363 316 398 c 0
 316 439 337 451 378 451 c 2
 470 451 l 2
 488 451 498 443 498 430 c 2
 498 107 l 1x68
EndSplineSet
EndChar
StartChar: w
Encoding: 119 119 87
Width: 602
Flags: MW
HStem: -12 20 344 107<9.5 151 27 151 151 152.5 151 159 566 567.5 566 574>
VStem: -26 654<380.5 418.5>
LayerCount: 2
Fore
SplineSet
298 226 m 1
 247 36 l 2
 238 2 212 -12 170 -12 c 0
 127 -12 104 1 97 36 c 2
 35 344 l 2
 32 344 30 344 27 344 c 0
 -8 344 -26 363 -26 398 c 0
 -26 439 -6 451 35 451 c 2
 151 451 l 2
 192 451 212 439 212 398 c 0
 212 363 194 344 159 344 c 0
 156 344 154 344 151 344 c 1
 190 104 l 1
 241 290 l 2
 250 321 260 338 301 338 c 0
 343 338 351 320 360 290 c 2
 414 104 l 1
 451 344 l 1
 448 344 446 344 443 344 c 0
 408 344 389 363 389 398 c 0
 389 439 410 451 451 451 c 2
 566 451 l 2
 607 451 628 439 628 398 c 0
 628 363 609 344 574 344 c 0
 571 344 569 344 566 344 c 2
 505 36 l 2
 498 1 474 -12 431 -12 c 0
 390 -12 366 0 355 36 c 2
 298 226 l 1
EndSplineSet
EndChar
StartChar: x
Encoding: 120 120 88
Width: 602
Flags: MW
HStem: 0 108<99 122 120 122 120 224 486 488> 344 107<125 125 466 466>
VStem: 53 500<34 417>
LayerCount: 2
Fore
SplineSet
486 108 m 2
 490 108 494 109 497 109 c 0
 534 109 553 90 553 54 c 0
 553 14 533 0 491 0 c 2
 373 0 l 2
 340 0 324 17 324 53 c 0
 324 83 334 98 356 98 c 0
 357 98 359 98 360 98 c 1
 298 167 l 1
 238 98 l 1
 239 98 241 98 242 98 c 0
 263 98 273 83 273 53 c 0
 273 17 257 0 224 0 c 2
 120 0 l 2
 78 0 59 14 59 54 c 0
 59 90 76 109 111 109 c 0
 115 109 118 108 122 108 c 2
 237 225 l 1
 125 344 l 1
 119 343 114 343 109 343 c 0
 71 343 53 361 53 397 c 0
 53 437 73 451 115 451 c 2
 233 451 l 2
 266 451 282 434 282 398 c 0
 282 368 272 353 251 353 c 1
 303 292 l 1
 359 353 l 1
 338 353 328 368 328 398 c 0
 328 434 344 451 377 451 c 2
 481 451 l 2
 523 451 542 437 542 397 c 0
 542 360 523 343 485 343 c 0
 479 343 473 343 466 344 c 1
 364 233 l 1
 486 108 l 2
EndSplineSet
EndChar
StartChar: y
Encoding: 121 121 89
Width: 602
Flags: MW
HStem: -195 108<96.5 193 117 193 309 331> 344 107<65.5 215 83 215 215 216.5 215 223 510 518 510 511.5>
VStem: 29 543<380.5 418.5>
LayerCount: 2
Fore
SplineSet
510 451 m 2
 551 451 572 439 572 398 c 0
 572 363 553 344 518 344 c 0
 515 344 513 344 510 344 c 2
 309 -87 l 1
 331 -87 l 2
 372 -87 393 -100 393 -141 c 0
 393 -182 372 -195 331 -195 c 2
 117 -195 l 2
 76 -195 55 -182 55 -141 c 0
 55 -100 76 -87 117 -87 c 2
 193 -87 l 1
 239 11 l 1
 91 344 l 2
 88 344 86 344 83 344 c 0
 48 344 29 363 29 398 c 0
 29 439 50 451 91 451 c 2
 215 451 l 2
 256 451 277 439 277 398 c 0
 277 363 258 344 223 344 c 0
 220 344 218 344 215 344 c 1
 303 136 l 1
 395 344 l 1
 392 344 390 344 387 344 c 0
 352 344 333 363 333 398 c 0
 333 439 354 451 395 451 c 2
 510 451 l 2
EndSplineSet
EndChar
StartChar: z
Encoding: 122 122 90
Width: 602
Flags: MW
HStem: 0 98<240 399 240 444> 353 98<193 343 193 193>
VStem: 82 419<33 58>
LayerCount: 2
Fore
SplineSet
240 98 m 1
 399 98 l 1
 402 132 l 2
 405 172 413 193 450 193 c 0
 491 193 501 173 501 132 c 2
 501 60 l 2
 501 6 491 0 444 0 c 2
 141 0 l 2
 102 0 82 17 82 49 c 0
 82 67 91 87 106 103 c 2
 343 353 l 1
 193 353 l 1
 193 330 l 2
 193 288 177 268 144 268 c 0
 103 268 94 289 94 330 c 2
 94 392 l 2
 94 446 103 451 150 451 c 2
 438 451 l 2
 478 451 497 433 497 402 c 0
 497 382 489 365 472 347 c 2
 240 98 l 1
EndSplineSet
EndChar
StartChar: bar
Encoding: 124 124 92
Width: 602
Flags: MW
HStem: -261 20 768 20<283 318.5>
VStem: 243 116<-208 735>
LayerCount: 2
Fore
SplineSet
359 -208 m 2
 359 -233 337 -261 301 -261 c 0
 266 -261 243 -235 243 -208 c 2
 243 735 l 2
 243 760 265 788 301 788 c 0
 336 788 359 762 359 735 c 2
 359 -208 l 2
EndSplineSet
EndChar
StartChar: braceright
Encoding: 125 125 93
Width: 602
Flags: MW
HStem: -184 20 561 20<178 256>
VStem: 249 106<-12 36 36 44 -76.5 86.5 361 409 409 419>
LayerCount: 2
Fore
SplineSet
355 353 m 2
 355 288 363 259 419 251 c 0
 457 246 472 230 472 198 c 0
 472 166 457 150 419 145 c 0
 363 137 355 109 355 44 c 2
 355 -23 l 2
 355 -130 317 -184 195 -184 c 0
 161 -184 143 -168 143 -141 c 0
 143 -107 170 -104 208 -97 c 0
 245 -90 249 -66 249 -12 c 2
 249 36 l 2
 249 137 267 184 350 198 c 1
 267 212 249 260 249 361 c 2
 249 409 l 2
 249 464 245 483 209 493 c 0
 179 501 143 499 143 538 c 0
 143 565 161 581 195 581 c 0
 317 581 355 526 355 419 c 2
 355 353 l 2
EndSplineSet
EndChar
StartChar: asciitilde
Encoding: 126 126 94
Width: 602
Flags: MW
HStem: 243 130
VStem: 50 501<273 344>
LayerCount: 2
Fore
SplineSet
50 286 m 0
 50 328 117 380 199 380 c 0
 272 380 342 338 403 338 c 0
 455 338 484 373 513 373 c 0
 536 373 551 357 551 331 c 0
 551 288 484 237 404 237 c 0
 329 237 260 279 199 279 c 0
 147 279 116 243 89 243 c 0
 65 243 50 260 50 286 c 0
EndSplineSet
EndChar
StartChar: exclamdown
Encoding: 161 161 95
Width: 602
Flags: W
HStem: -11 420<288.5 315 288.5 322> 449 163<272.5 331 272.5 331>
VStem: 205 192<507 553.5 507 554> 237 129<50 51 51 55 54 55>
LayerCount: 2
Fore
SplineSet
366 55 m 2x90
 366 53 366 52 366 50 c 0
 366 13 342 -11 302 -11 c 0
 261 -11 237 13 237 50 c 0
 237 52 237 53 237 55 c 2
 256 372 l 2
 257 392 275 409 302 409 c 0
 328 409 346 392 347 372 c 2
 366 55 l 2x90
397 530 m 0x60
 397 484 360 449 302 449 c 0
 242 449 205 483 205 530 c 0
 205 578 243 612 302 612 c 0
 360 612 397 577 397 530 c 0x60
EndSplineSet
EndChar
StartChar: cent
Encoding: 162 162 96
Width: 602
Flags: MW
HStem: 103 89<338 338> 430 90<272 334>
VStem: 71 120<276 344.5 276 365.5>
LayerCount: 2
Fore
SplineSet
428 489 m 1
 435 512 450 523 472 523 c 0
 506 523 516 501 516 459 c 2
 516 388 l 2
 516 353 503 336 472 336 c 0
 449 336 436 348 422 372 c 0
 399 411 361 430 307 430 c 0
 238 430 191 378 191 311 c 0
 191 241 237 192 315 192 c 0
 404 192 444 248 479 248 c 0
 501 248 517 230 517 204 c 0
 517 159 454 115 338 103 c 1
 329 -5 l 2
 327 -25 314 -33 288 -33 c 0
 261 -33 248 -24 248 -6 c 0
 248 -5 248 -5 248 -4 c 2
 256 104 l 1
 141 123 71 207 71 311 c 0
 71 420 151 506 272 520 c 1
 280 618 l 2
 282 638 294 646 319 646 c 0
 347 646 361 637 361 619 c 0
 361 618 361 618 361 617 c 2
 353 516 l 1
 379 511 404 502 428 489 c 1
EndSplineSet
EndChar
StartChar: sterling
Encoding: 163 163 97
Width: 602
Flags: W
HStem: -8 112<373 397 373 423.5> 14 102 259 85<97 99 99 139 97 162 285 422 422 425 285 285> 542 90<289.5 329>
VStem: 111 125<456.5 492 456.5 521.5> 182 115<138 199.5>
LayerCount: 2
Fore
SplineSet
266 344 m 1xb8
 422 344 l 2
 433 344 441 334 441 316 c 2
 441 281 l 2
 441 266 437 259 425 259 c 2
 285 259 l 1
 292 231 297 208 297 191 c 0
 297 168 291 144 281 116 c 1x64
 335 114 367 104 379 104 c 0
 415 104 441 133 464 133 c 0
 486 133 512 100 512 73 c 0
 512 35 460 -8 387 -8 c 0xb8
 333 -8 285 14 239 14 c 0
 191 14 158 -14 145 -14 c 0
 125 -14 105 25 105 47 c 0
 105 62 123 68 147 85 c 0
 174 104 182 119 182 157 c 0x64
 182 187 174 220 162 259 c 1
 99 259 l 2
 88 259 80 269 80 287 c 2
 80 322 l 2
 80 336 85 344 97 344 c 2
 139 344 l 1
 121 394 111 435 111 470 c 0
 111 573 180 632 305 632 c 0
 403 632 468 601 472 543 c 2
 475 502 l 2
 475 500 475 498 475 497 c 0
 475 467 459 454 421 454 c 0
 394 454 390 477 381 498 c 0
 368 527 345 542 313 542 c 0
 266 542 236 513 236 471 c 0
 236 442 250 401 266 344 c 1xb8
EndSplineSet
EndChar
StartChar: yen
Encoding: 165 165 99
Width: 602
Flags: MW
HStem: 0 109<157 246 178 246 363 431> 230 74<67 201 79 201 79 246 399 522> 372 74<67 130 79 130 79 168 471 522> 508 107<77.5 215 95 215 220 220.5 220 222>
VStem: 246 117<109 230 109 230>
LayerCount: 2
Fore
SplineSet
103 508 m 2
 100 508 98 508 95 508 c 0
 60 508 43 527 43 562 c 0
 43 602 63 615 103 615 c 2
 215 615 l 2
 251 615 268 603 268 562 c 0
 268 526 252 508 222 508 c 2
 222 508 221 508 220 508 c 1
 309 315 l 1
 397 509 l 1
 396 509 396 509 395 509 c 0
 366 509 350 528 350 562 c 0
 350 602 368 615 404 615 c 2
 498 615 l 2
 538 615 559 602 559 562 c 0
 559 528 541 509 508 509 c 0
 505 509 503 509 500 509 c 2
 471 446 l 1
 522 446 l 2
 546 446 559 432 559 409 c 0
 559 386 546 372 522 372 c 2
 434 372 l 1
 399 304 l 1
 522 304 l 2
 546 304 559 290 559 267 c 0
 559 244 546 230 522 230 c 2
 363 230 l 1
 363 109 l 1
 431 109 l 2
 473 109 493 94 493 55 c 0
 493 17 473 0 431 0 c 2
 178 0 l 2
 136 0 116 14 116 54 c 0
 116 93 135 109 178 109 c 2
 246 109 l 1
 246 230 l 1
 79 230 l 2
 55 230 43 244 43 267 c 0
 43 290 55 304 79 304 c 2
 201 304 l 1
 168 372 l 1
 79 372 l 2
 55 372 43 386 43 409 c 0
 43 432 55 446 79 446 c 2
 130 446 l 1
 103 508 l 2
EndSplineSet
EndChar
StartChar: brokenbar
Encoding: 320 166 213
Width: 602
Flags: MW
HStem: -172 20 179 20<253 348 348 348> 329 20 679 20<253 348 348 348>
VStem: 253 95<-172 199 -172 199 329 699>
LayerCount: 2
Fore
SplineSet
253 329 m 1
 253 699 l 1
 348 699 l 1
 348 329 l 1
 253 329 l 1
253 -172 m 1
 253 199 l 1
 348 199 l 1
 348 -172 l 1
 253 -172 l 1
EndSplineSet
EndChar
StartChar: section
Encoding: 167 167 101
Width: 602
Flags: W
HStem: -105 79<118.5 290 180 281 281 290 290 300> 500 79<303 313 313 322 322 411>
VStem: 64 83<330.5 350 330.5 356.5> 97 83<-26 24 -26 24 -26 36> 147 94 362 97<-2.5 8 -12.5 24.5> 411 83<450 500 500 500> 450 89<122.5 142.5>
LayerCount: 2
Fore
SplineSet
456 37 m 1x49
 458 23 459 12 459 4 c 0
 459 -29 443 -60 414 -80 c 0
 379 -104 342 -105 300 -105 c 0
 294 -105 287 -105 281 -105 c 2
 130 -105 l 2
 107 -105 97 -97 97 -78 c 2
 97 24 l 2
 97 48 111 61 139 61 c 0
 164 61 180 45 180 24 c 2
 180 -26 l 1x94
 290 -26 l 2
 339 -26 362 -19 362 14 c 0
 362 35 345 57 310 80 c 2
 159 182 l 2
 95 225 64 272 64 328 c 0xa4
 64 385 94 425 147 439 c 1
 145 453 145 464 145 471 c 0
 145 503 161 534 190 554 c 0
 224 578 261 579 303 579 c 0
 309 579 316 579 322 579 c 2
 461 579 l 2
 484 579 494 571 494 552 c 2
 494 450 l 2
 494 426 481 413 453 413 c 0
 428 413 411 429 411 450 c 2
 411 500 l 1x4a
 313 500 l 2
 264 500 241 493 241 460 c 0
 241 439 258 417 293 394 c 2
 444 292 l 2
 508 249 539 202 539 146 c 0
 539 88 508 46 456 37 c 1x49
422 96 m 1
 441 104 450 114 450 131 c 0
 450 154 427 182 382 212 c 2
 233 312 l 2
 207 329 186 349 170 375 c 1
 154 367 147 358 147 342 c 0
 147 319 169 291 214 261 c 2
 364 160 l 2
 389 143 409 128 422 96 c 1
EndSplineSet
EndChar
StartChar: dieresis
Encoding: 200 168 130
Width: 602
Flags: MW
HStem: 520 124<164 197.5 164 198.5 406 439.5>
VStem: 118 123<564.5 598> 360 124<564.5 598>
LayerCount: 2
Fore
SplineSet
118 582 m 0
 118 614 147 644 181 644 c 0
 214 644 241 615 241 582 c 0
 241 545 216 520 181 520 c 0
 146 520 118 547 118 582 c 0
360 582 m 0
 360 614 389 644 423 644 c 0
 456 644 484 615 484 582 c 0
 484 545 458 520 423 520 c 0
 388 520 360 547 360 582 c 0
EndSplineSet
EndChar
StartChar: ordfeminine
Encoding: 227 170 138
Width: 602
Flags: W
HStem: 144 62<125 470 130 470> 252 79<249.5 261.5> 262 86<411.5 469 424 469> 432 61<272.5 294.5 224 311.5> 563 70<275 321.5>
VStem: 103 106<361 393 361 408.5> 113 376<162 191 157 195.5> 367 95<363 423 423 423 484 492 491 492 348 515>
LayerCount: 2
Fore
SplineSet
462 492 m 2x5d
 462 348 l 1
 465 348 467 348 469 348 c 0
 497 348 511 333 511 305 c 0
 511 274 495 262 461 262 c 2
 424 262 l 2x21
 399 262 390 268 380 296 c 1
 335 267 285 252 238 252 c 0
 155 252 103 297 103 370 c 0
 103 447 167 493 281 493 c 0
 308 493 336 489 367 484 c 1
 367 487 367 490 367 492 c 0
 367 538 343 563 300 563 c 0
 250 563 215 525 175 525 c 0
 150 525 134 542 134 565 c 0
 134 605 198 633 306 633 c 0
 424 633 462 588 462 492 c 2x5d
367 363 m 1x5d
 367 423 l 1
 342 428 321 432 302 432 c 0
 243 432 209 410 209 376 c 0
 209 346 229 331 270 331 c 0
 306 331 336 342 367 363 c 1x5d
130 206 m 2x82
 470 206 l 2
 482 206 489 201 489 191 c 2
 489 162 l 2
 489 152 480 144 470 144 c 2
 130 144 l 2
 120 144 113 151 113 162 c 2
 113 191 l 2
 113 200 120 206 130 206 c 2x82
EndSplineSet
EndChar
StartChar: guillemotleft
Encoding: 171 171 105
Width: 602
Flags: MW
HStem: 36 374<252 268.5 252 268.5 412 428.5 252 428.5>
VStem: 143 155<62.5 228.5> 303 155<62.5 228.5>
LayerCount: 2
Fore
SplineSet
393 223 m 1
 455 91 l 2
 457 86 458 79 458 73 c 0
 458 52 439 36 418 36 c 0
 405 36 392 44 387 53 c 2
 310 203 l 2
 305 212 303 219 303 225 c 0
 303 232 305 240 310 249 c 2
 387 394 l 2
 392 403 406 410 418 410 c 0
 439 410 458 394 458 373 c 0
 458 367 457 361 455 356 c 2
 393 223 l 1
233 223 m 1
 294 91 l 2
 296 86 298 79 298 73 c 0
 298 52 279 36 258 36 c 0
 245 36 232 44 227 53 c 2
 150 203 l 2
 145 212 143 219 143 225 c 0
 143 232 145 240 150 249 c 2
 227 394 l 2
 232 403 246 410 258 410 c 0
 279 410 298 394 298 373 c 0
 298 367 296 361 294 356 c 2
 233 223 l 1
EndSplineSet
EndChar
StartChar: registered
Encoding: 315 174 208
Width: 602
Flags: MW
HStem: 33 48<267 333.5 267 340.5> 180 59<187 192 187 192 187 260 426 432> 309 54<261 286 261 261> 439 57<258 258 258 303> 583 48<268.5 333>
VStem: 1 51<297.5 364.5 297.5 371.5> 192 72<239 239> 353 76<389 414.5> 549 51<299.5 364.5>
LayerCount: 2
Fore
SplineSet
1 332 m 0
 1 411 32 484 89 542 c 0
 145 599 221 631 301 631 c 0
 378 631 456 599 512 544 c 0
 567 489 600 410 600 332 c 0
 600 254 568 178 511 120 c 0
 455 64 381 33 300 33 c 0
 220 33 148 63 90 120 c 0
 33 176 1 251 1 332 c 0
52 332 m 0
 52 263 78 203 126 155 c 0
 175 107 234 81 300 81 c 0
 367 81 428 107 475 155 c 0
 523 204 549 267 549 332 c 0
 549 397 521 464 475 510 c 0
 429 556 365 583 301 583 c 0
 236 583 171 556 125 509 c 0
 78 461 52 397 52 332 c 0
367 326 m 1
 374 322 377 315 382 308 c 2
 426 239 l 2
 428 239 431 239 433 239 c 0
 455 239 465 230 465 210 c 0
 465 188 456 180 432 180 c 2
 399 180 l 2
 381 180 377 184 369 196 c 2
 305 298 l 2
 300 306 293 309 286 309 c 2
 261 309 l 1
 261 239 l 1
 262 239 263 239 264 239 c 0
 284 239 295 229 295 210 c 0
 295 188 284 180 260 180 c 2
 192 180 l 2
 169 180 158 188 158 210 c 0
 158 229 168 239 187 239 c 0
 188 239 190 239 192 239 c 1
 192 437 l 1
 190 437 189 437 187 437 c 0
 168 437 158 448 158 467 c 0
 158 489 169 496 192 496 c 2
 314 496 l 2
 390 496 429 467 429 409 c 0
 429 369 409 342 367 326 c 1
258 439 m 1
 258 363 l 1
 294 363 l 2
 334 363 353 372 353 401 c 0
 353 428 337 439 303 439 c 2
 258 439 l 1
EndSplineSet
EndChar
StartChar: macron
Encoding: 197 175 127
Width: 602
Flags: MW
HStem: 547 68<142 456 146 456>
VStem: 131 340<566 596 561 601.5>
LayerCount: 2
Fore
SplineSet
471 566 m 2
 471 556 464 547 456 547 c 2
 146 547 l 2
 138 547 131 556 131 566 c 2
 131 596 l 2
 131 607 138 615 146 615 c 2
 456 615 l 2
 464 615 471 607 471 596 c 2
 471 566 l 2
EndSplineSet
EndChar
StartChar: degree
Encoding: 321 176 214
Width: 602
Flags: MW
HStem: 350 72<277.5 324.5 277.5 345> 592 72<277.5 324.5>
VStem: 144 74<483 531 483 550.5> 384 74<483.5 530.5>
LayerCount: 2
Fore
SplineSet
144 507 m 0
 144 594 213 664 301 664 c 0
 389 664 458 594 458 507 c 0
 458 419 389 350 301 350 c 0
 213 350 144 419 144 507 c 0
218 507 m 0
 218 459 254 422 301 422 c 0
 348 422 384 460 384 507 c 0
 384 554 348 592 301 592 c 0
 254 592 218 555 218 507 c 0
EndSplineSet
EndChar
StartChar: twosuperior
Encoding: 333 178 226
Width: 602
Flags: MW
HStem: 241 72<171.5 381 243 381 243 406> 552 80<265 301.5>
VStem: 339 94<483 516.5>
LayerCount: 2
Fore
SplineSet
243 313 m 1
 381 313 l 1
 384 331 l 2
 388 354 404 369 424 369 c 0
 448 369 464 351 464 326 c 0
 464 323 464 320 463 316 c 2
 456 269 l 2
 453 248 435 241 406 241 c 2
 184 241 l 2
 159 241 146 258 146 287 c 0
 146 335 187 355 250 397 c 0
 307 435 339 464 339 502 c 0
 339 531 318 552 285 552 c 0
 244 552 215 519 194 519 c 0
 175 519 157 535 157 555 c 0
 157 595 229 632 301 632 c 0
 380 632 433 579 433 509 c 0
 433 435 365 388 243 313 c 1
EndSplineSet
EndChar
StartChar: acute
Encoding: 194 180 124
Width: 602
Flags: MW
HStem: 493 176
VStem: 196 285<531 605>
LayerCount: 2
Fore
SplineSet
196 531 m 1
 428 667 l 2
 430 668 434 669 436 669 c 0
 446 669 454 664 459 654 c 2
 479 612 l 2
 480 609 481 606 481 604 c 0
 481 595 475 587 468 584 c 2
 212 493 l 1
 196 531 l 1
EndSplineSet
EndChar
StartChar: paragraph
Encoding: 182 182 114
Width: 602
Flags: MW
HStem: -76 107<207 215 207 215 207 316> 508 108<342 389 333 504 504 512 504 505.5>
VStem: 215 118<-76 508 31 257 257 257> 389 115<31 508>
LayerCount: 2
Fore
SplineSet
504 616 m 2
 545 616 565 603 565 562 c 0
 565 527 547 508 512 508 c 0
 509 508 507 508 504 508 c 1
 504 31 l 1
 507 31 509 31 512 31 c 0
 547 31 565 12 565 -23 c 0
 565 -64 545 -76 504 -76 c 2
 408 -76 l 2
 383 -76 371 -63 371 -36 c 0
 371 -22 377 -8 389 5 c 1
 389 508 l 1
 333 508 l 1
 333 5 l 1
 348 -4 354 -15 354 -36 c 0
 354 -67 346 -76 316 -76 c 2
 215 -76 l 2
 174 -76 154 -64 154 -23 c 0
 154 12 172 31 207 31 c 0
 210 31 212 31 215 31 c 1
 215 257 l 1
 107 273 46 340 46 433 c 0
 46 549 145 616 342 616 c 2
 504 616 l 2
EndSplineSet
EndChar
StartChar: periodcentered
Encoding: 180 183 113
Width: 602
Flags: MW
HStem: 209 198<273.5 328.5 273.5 328.5>
VStem: 202 198<280.5 335.5>
LayerCount: 2
Fore
SplineSet
202 308 m 0
 202 363 246 407 301 407 c 0
 356 407 400 363 400 308 c 0
 400 252 356 209 301 209 c 0
 245 209 202 253 202 308 c 0
EndSplineSet
EndChar
StartChar: cedilla
Encoding: 203 184 132
Width: 602
Flags: MW
HStem: -233 48<284 314 276 355.5> -107 46<292.5 373.5> -20 20<270 312 312 312>
VStem: 270 42<-65 0 -65 0 -65 0> 344 93<-157.5 -132>
LayerCount: 2
Fore
SplineSet
312 0 m 1
 312 -65 l 1
 329 -63 340 -61 347 -61 c 0
 400 -61 437 -96 437 -145 c 0
 437 -200 394 -233 317 -233 c 0
 251 -233 180 -206 180 -178 c 0
 180 -167 189 -160 202 -160 c 0
 220 -160 253 -185 299 -185 c 0
 329 -185 344 -171 344 -144 c 0
 344 -120 326 -107 295 -107 c 0
 290 -107 283 -108 270 -110 c 1
 270 0 l 1
 312 0 l 1
EndSplineSet
EndChar
StartChar: ordmasculine
Encoding: 235 186 142
Width: 602
Flags: W
HStem: 144 62<125 470 130 470> 253 82<269.5 331 269.5 364.5> 549 83<269 331>
VStem: 87 109<411 472.5 411 495.5> 113 376<162 191 157 195.5> 405 109<411 472.5>
LayerCount: 2
Fore
SplineSet
514 442 m 0x74
 514 334 429 253 300 253 c 0
 171 253 87 335 87 442 c 0
 87 549 171 632 300 632 c 0
 429 632 514 550 514 442 c 0x74
300 335 m 0
 362 335 405 380 405 442 c 0
 405 503 362 549 300 549 c 0
 238 549 196 503 196 442 c 0
 196 380 239 335 300 335 c 0
130 206 m 2x88
 470 206 l 2
 482 206 489 201 489 191 c 2
 489 162 l 2
 489 152 480 144 470 144 c 2
 130 144 l 2
 120 144 113 151 113 162 c 2
 113 191 l 2
 113 200 120 206 130 206 c 2x88
EndSplineSet
EndChar
StartChar: guillemotright
Encoding: 187 187 119
Width: 602
Flags: MW
HStem: 36 374<171.5 188 331.5 348>
VStem: 141 156<62.5 224 217.5 383.5> 301 156<62.5 224 217.5 383.5>
LayerCount: 2
Fore
SplineSet
367 223 m 1
 305 356 l 2
 303 361 301 367 301 373 c 0
 301 394 321 410 342 410 c 0
 355 410 367 403 372 394 c 2
 450 244 l 2
 455 235 457 227 457 221 c 0
 457 214 455 206 450 197 c 2
 372 53 l 2
 367 44 354 36 342 36 c 0
 321 36 301 52 301 73 c 0
 301 79 303 86 305 91 c 2
 367 223 l 1
206 223 m 1
 145 356 l 2
 143 361 141 367 141 373 c 0
 141 394 161 410 182 410 c 0
 195 410 207 403 212 394 c 2
 290 244 l 2
 295 235 297 227 297 221 c 0
 297 214 295 206 290 197 c 2
 212 53 l 2
 207 44 194 36 182 36 c 0
 161 36 141 52 141 73 c 0
 141 79 143 86 145 91 c 2
 206 223 l 1
EndSplineSet
EndChar
StartChar: threequarters
Encoding: 331 190 224
Width: 602
Flags: W
HStem: -93 20 -26 66<268.5 437 321 430 509 546> 242 20<422 429> 321 66<141 176.5 141 207> 622 66<152 181>
VStem: 206 87<578.5 597.5> 220 87<423.5 449.5 399.5 450.5> 430 79<-65 -26 -76 -26>
LayerCount: 2
Fore
SplineSet
239 519 m 1x0c
 284 499 307 469 307 430 c 0
 307 369 252 321 162 321 c 0
 85 321 38 342 38 372 c 0
 38 395 51 408 73 408 c 0
 99 408 124 387 158 387 c 0
 195 387 220 409 220 438 c 0xf3
 220 463 200 484 171 486 c 0
 148 488 133 490 133 515 c 0
 133 535 146 539 168 544 c 0
 195 550 206 558 206 586 c 0
 206 609 193 622 169 622 c 0
 135 622 105 595 85 595 c 0
 67 595 54 608 54 626 c 0
 54 656 106 688 177 688 c 0
 248 688 293 644 293 596 c 0
 293 561 275 536 239 519 c 1x0c
509 40 m 1xf3
 546 40 l 2
 568 40 570 32 570 9 c 0
 570 -13 568 -26 546 -26 c 2
 509 -26 l 1
 509 -65 l 2
 509 -87 495 -93 470 -93 c 0
 443 -93 430 -88 430 -65 c 2
 430 -26 l 1
 280 -26 l 2
 257 -26 249 -13 249 14 c 0
 249 37 251 57 267 76 c 2
 405 246 l 2
 413 256 418 262 426 262 c 0
 432 262 438 262 444 261 c 2
 493 253 l 2
 504 251 509 241 509 222 c 2
 509 40 l 1xf3
437 40 m 1
 437 189 l 1
 321 40 l 1
 437 40 l 1
492 419 m 2
 498 422 504 423 509 423 c 0
 524 423 535 411 535 397 c 0
 535 387 528 376 517 370 c 2
 98 158 l 2
 93 155 87 154 82 154 c 0
 67 154 56 167 56 181 c 0
 56 191 63 201 74 207 c 2
 492 419 l 2
EndSplineSet
EndChar
StartChar: questiondown
Encoding: 191 191 122
Width: 602
Flags: W
HStem: -7 91<299.5 355.5 299.5 358> 404 20<330.5 364.5> 457 155<317.5 376.5>
VStem: 114 125<138 192.5 138 207.5> 251 191<512.5 556> 294 108<343 353 353 381 381 382 331 394.5>
LayerCount: 2
Fore
SplineSet
251 534 m 0x28
 251 578 288 612 347 612 c 0
 406 612 442 579 442 534 c 0
 442 490 406 457 347 457 c 0
 288 457 251 491 251 534 c 0x28
402 353 m 2xd4
 402 309 392 288 344 262 c 0
 288 231 239 224 239 161 c 0
 239 115 272 84 327 84 c 0
 384 84 395 94 401 121 c 0
 407 148 413 166 452 166 c 0
 481 166 493 152 493 119 c 2
 493 57 l 2
 493 22 411 -7 305 -7 c 0
 185 -7 114 61 114 166 c 0
 114 249 176 313 294 343 c 1
 294 381 l 2
 294 408 314 424 347 424 c 0
 382 424 402 407 402 382 c 2
 402 353 l 2xd4
EndSplineSet
EndChar
StartChar: Aring
Encoding: 260 197 153
Width: 602
Flags: W
HStem: 0 107<48 56 48 56 165 182 400 417> 164 101<220 362 220 397 186 362> 471 108<126.5 331 148 187 291 291> 611 70<264.5 299 264.5 318.5> 806 69<264.5 299>
VStem: -6 615<33.5 71.5> 150 69<726.5 761 726.5 779.5> 344 70<726.5 761>
LayerCount: 2
Fore
SplineSet
220 265 m 1x7b
 362 265 l 1
 291 471 l 1
 220 265 l 1x7b
165 107 m 1xe4
 182 107 l 2
 223 107 244 95 244 54 c 0
 244 13 223 0 182 0 c 2
 56 0 l 2
 15 0 -6 13 -6 54 c 0
 -6 89 13 107 48 107 c 0
 50 107 53 107 56 107 c 2
 187 471 l 1
 147 471 l 2
 106 471 86 484 86 525 c 0
 86 565 106 579 148 579 c 2
 331 579 l 2
 375 579 379 567 392 531 c 2
 547 107 l 2
 550 107 553 107 555 107 c 0
 590 107 609 89 609 54 c 0
 609 13 588 0 547 0 c 2
 400 0 l 2
 359 0 338 13 338 54 c 0
 338 95 359 107 400 107 c 2
 417 107 l 1
 397 164 l 1
 186 164 l 1
 165 107 l 1xe4
150 743 m 0x7b
 150 816 208 875 282 875 c 0
 355 875 414 816 414 743 c 0
 414 669 355 611 282 611 c 0
 209 611 150 669 150 743 c 0x7b
219 744 m 0
 219 709 247 681 282 681 c 0
 316 681 344 709 344 744 c 0
 344 778 316 806 282 806 c 0
 247 806 219 778 219 744 c 0
EndSplineSet
EndChar
StartChar: AE
Encoding: 225 198 137
Width: 602
Flags: W
HStem: 0 104<269 521 375 521 375 567> 185 84<183 273 183 273 159 273> 260 83<375 415 375 415> 476 103<243 273 243 243 375 521 375 375>
VStem: 273 102<107 185 185 185 343 476> 415 76<253 259 259 260 259 260> 521 89<104 162 425 476 476 476>
LayerCount: 2
Fore
SplineSet
521 104 m 1xbe
 521 162 l 2
 521 203 532 223 566 223 c 0
 601 223 610 203 610 162 c 2
 610 44 l 2
 610 11 604 0 567 0 c 2
 273 0 l 2
 272 0 270 0 269 0 c 0
 229 0 202 1 202 54 c 0
 202 91 219 109 254 109 c 0
 260 109 266 108 273 107 c 1
 273 185 l 1
 159 185 l 1xda
 111 18 l 2
 107 4 102 0 88 0 c 2
 35 0 l 2
 34 0 32 0 31 0 c 0
 -8 0 -35 1 -35 54 c 0
 -35 91 -19 109 16 109 c 0
 22 109 28 108 35 107 c 1
 146 471 l 1
 139 470 133 470 127 470 c 0
 92 470 76 488 76 525 c 0
 76 579 104 579 146 579 c 2
 567 579 l 2
 604 579 610 567 610 534 c 2
 610 425 l 2
 610 384 600 363 566 363 c 0
 532 363 521 384 521 425 c 2
 521 476 l 1
 375 476 l 1
 375 343 l 1
 415 343 l 1
 415 345 415 347 415 350 c 0
 415 379 428 394 452 394 c 0
 481 394 491 377 491 343 c 2
 491 259 l 2
 491 225 482 208 453 208 c 0
 428 208 415 224 415 253 c 0
 415 256 415 258 415 260 c 1
 375 260 l 1
 375 104 l 1
 521 104 l 1xbe
183 269 m 1xfe
 273 269 l 1
 273 476 l 1
 243 476 l 1
 183 269 l 1xfe
EndSplineSet
EndChar
StartChar: Oslash
Encoding: 233 216 140
Width: 602
Flags: MW
HStem: -15 112<288 340.5 288 381> 482 113<259 308>
VStem: 25 141<269 352 269 379.5> 436 140<227.5 311>
LayerCount: 2
Fore
SplineSet
186 175 m 1
 361 466 l 1
 339 477 318 482 298 482 c 0
 220 482 166 414 166 290 c 0
 166 248 172 211 186 175 c 1
413 409 m 1
 237 116 l 1
 258 104 277 97 299 97 c 0
 382 97 436 165 436 290 c 0
 436 332 432 370 413 409 c 1
423 567 m 1
 451 613 l 2
 460 627 467 635 482 635 c 0
 501 635 523 616 523 599 c 0
 523 594 522 588 519 583 c 2
 483 525 l 1
 546 464 576 386 576 290 c 0
 576 111 461 -15 301 -15 c 0
 256 -15 217 -6 177 14 c 1
 140 -44 l 2
 131 -58 125 -67 109 -67 c 0
 90 -67 67 -48 67 -31 c 0
 67 -25 69 -20 72 -15 c 2
 117 57 l 1
 56 120 25 198 25 290 c 0
 25 469 139 595 301 595 c 0
 344 595 382 586 423 567 c 1
EndSplineSet
EndChar
StartChar: Thorn
Encoding: 318 222 211
Width: 602
Flags: MW
HStem: 0 91<98.5 128 119 128 119 128 248 297> 136 91<248 309 309 321 248 309> 351 92<248 321 248 309> 488 91<109 120.5 119 128 248 248 248 281>
VStem: 128 120<0 136 91 136 227 351 443 488> 406 119<267 311.5>
LayerCount: 2
Fore
SplineSet
248 351 m 1
 248 227 l 1
 309 227 l 2
 375 227 406 245 406 289 c 0
 406 334 375 351 309 351 c 2
 248 351 l 1
128 488 m 1
 125 488 122 488 119 488 c 0
 86 488 69 504 69 534 c 0
 69 561 88 579 109 579 c 0
 111 579 117 579 128 579 c 2
 281 579 l 2
 292 579 300 579 302 579 c 0
 322 579 341 561 341 534 c 0
 341 500 321 488 281 488 c 2
 248 488 l 1
 248 443 l 1
 321 443 l 2
 457 443 525 389 525 293 c 0
 525 193 457 136 321 136 c 2
 248 136 l 1
 248 91 l 1
 297 91 l 2
 304 91 311 91 316 91 c 0
 337 91 357 73 357 45 c 0
 357 9 335 0 297 0 c 2
 128 0 l 2
 122 0 115 0 109 0 c 0
 88 0 69 18 69 45 c 0
 69 75 86 91 119 91 c 0
 122 91 125 91 128 91 c 1
 128 488 l 1
EndSplineSet
EndChar
StartChar: germandbls
Encoding: 251 223 148
Width: 602
Flags: W
HStem: -12 103<337.5 370 337.5 417> 0 107<53.5 102 74 102 74 194> 541 98<266.5 324>
VStem: 102 120<107 409> 370 127<464.5 491> 426 127<165.5 237>
LayerCount: 2
Fore
SplineSet
222 409 m 2x78
 222 21 l 2
 222 8 212 0 194 0 c 2
 74 0 l 2
 33 0 12 13 12 54 c 0
 12 95 33 107 74 107 c 2
 102 107 l 1
 102 439 l 2
 102 578 158 639 306 639 c 0
 429 639 497 585 497 493 c 0x78
 497 436 468 396 412 377 c 1
 503 359 553 293 553 192 c 0
 553 62 479 -12 355 -12 c 0
 293 -12 266 6 266 46 c 0
 266 76 285 92 321 92 c 0
 327 92 334 91 341 91 c 0
 399 91 426 128 426 203 c 0x84
 426 271 396 313 343 324 c 0
 300 333 269 327 269 369 c 0
 269 396 282 404 316 410 c 0
 353 416 370 431 370 467 c 0
 370 515 346 541 302 541 c 0
 231 541 222 495 222 409 c 2x78
EndSplineSet
EndChar
StartChar: aring
Encoding: 288 229 181
Width: 602
Flags: W
HStem: -12 98<235.5 251> 0 107<438.5 508 454 508> 212 76<263 290 202.5 312> 377 87<267 325.5> 500 70<281.5 316 281.5 335.5> 695 69<281.5 316>
VStem: 52 132<123.5 163.5 123.5 182.5> 167 70<615.5 650 615.5 668.5> 361 70<615.5 650> 382 118<126 201 201 201 278 287 285.5 288>
LayerCount: 2
Fore
SplineSet
500 288 m 2xb240
 500 107 l 1
 503 107 505 107 508 107 c 0
 543 107 562 88 562 53 c 0
 562 14 542 0 500 0 c 2
 454 0 l 2x6040
 423 0 409 9 398 43 c 1
 344 7 282 -12 220 -12 c 0
 115 -12 52 43 52 134 c 0
 52 231 132 288 273 288 c 0
 307 288 343 285 382 278 c 1
 382 281 382 284 382 287 c 0
 382 346 353 377 298 377 c 0
 236 377 190 329 144 329 c 0
 109 329 91 349 91 378 c 0
 91 429 170 464 306 464 c 0
 453 464 500 408 500 288 c 2xb240
382 126 m 1xb240
 382 201 l 1
 351 208 324 212 300 212 c 0
 226 212 184 187 184 140 c 0
 184 107 211 86 260 86 c 0
 305 86 344 99 382 126 c 1xb240
167 632 m 0x0d80
 167 705 225 764 299 764 c 0
 372 764 431 705 431 632 c 0
 431 558 372 500 299 500 c 0
 226 500 167 558 167 632 c 0x0d80
237 633 m 0
 237 598 264 570 299 570 c 0
 333 570 361 598 361 633 c 0
 361 667 333 695 299 695 c 0
 264 695 237 667 237 633 c 0
EndSplineSet
EndChar
StartChar: ae
Encoding: 241 230 143
Width: 602
Flags: W
HStem: -12 97<157 170.5> -12 104<427 481.5 427 487> 197 76<179 187 187 263 376 487> 368 95<170 212.5 416 446>
VStem: 4 115<125 160.5 125 177.5> 263 113<125 197 197 197 197 279 197 307> 487 113<273 273>
LayerCount: 2
Fore
SplineSet
376 273 m 1x7e
 487 273 l 1
 482 336 461 368 431 368 c 0
 401 368 381 336 376 273 c 1x7e
263 125 m 1xac
 263 197 l 1
 187 197 l 2
 143 197 119 178 119 143 c 0
 119 107 139 85 175 85 c 0
 211 85 238 101 263 125 c 1xac
317 403 m 1x7e
 347 443 388 463 438 463 c 0
 535 463 600 372 600 245 c 0
 600 206 589 197 553 197 c 2
 376 197 l 1
 377 126 402 92 452 92 c 0
 511 92 534 143 561 143 c 0
 579 143 600 120 600 98 c 0
 600 51 531 -12 443 -12 c 0
 384 -12 338 13 308 62 c 1
 267 15 202 -12 139 -12 c 0
 56 -12 4 42 4 131 c 0
 4 224 64 273 179 273 c 2
 263 273 l 1
 263 275 263 277 263 279 c 0
 263 335 234 368 191 368 c 0
 149 368 113 333 75 333 c 0
 49 333 34 351 34 376 c 0
 34 425 97 463 187 463 c 0
 243 463 283 445 317 403 c 1x7e
EndSplineSet
EndChar
StartChar: eth
Encoding: 323 240 216
Width: 602
Flags: MW
HStem: -12 103<262.5 339.5 262.5 382> 359 97<262.5 301 213 340> 619 20<190 222>
VStem: 34 136<187.5 264.5 187.5 290> 431 131<187.5 264>
LayerCount: 2
Fore
SplineSet
301 91 m 0
 378 91 431 149 431 226 c 0
 431 302 379 359 301 359 c 0
 224 359 170 303 170 226 c 0
 170 149 224 91 301 91 c 0
354 448 m 1
 337 474 315 498 289 521 c 1
 193 479 l 2
 184 475 176 472 167 472 c 0
 155 472 144 488 144 503 c 0
 144 515 152 523 169 530 c 2
 241 560 l 1
 187 600 156 608 156 620 c 0
 156 631 174 639 206 639 c 0
 238 639 269 617 318 591 c 1
 401 628 l 2
 410 632 418 635 427 635 c 0
 439 635 450 619 450 604 c 0
 450 592 441 585 425 578 c 2
 372 554 l 1
 499 452 562 342 562 225 c 0
 562 90 463 -12 301 -12 c 0
 139 -12 34 90 34 225 c 0
 34 355 136 456 290 456 c 0
 312 456 333 453 354 448 c 1
EndSplineSet
EndChar
StartChar: divide
Encoding: 322 247 215
Width: 602
Flags: MW
HStem: 86 137<282.5 320 282.5 320.5> 258 100<68 519 82 519> 393 137<282.5 320 282.5 320.5>
VStem: 37 196<135 324> 369 195<135 324 292.5 480.5>
LayerCount: 2
Fore
SplineSet
301 86 m 0
 263 86 233 116 233 154 c 0
 233 193 264 223 301 223 c 0
 339 223 369 193 369 154 c 0
 369 116 340 86 301 86 c 0
82 358 m 2
 519 358 l 2
 548 358 564 340 564 308 c 0
 564 277 547 258 519 258 c 2
 82 258 l 2
 54 258 37 277 37 308 c 0
 37 340 54 358 82 358 c 2
301 393 m 0
 263 393 233 423 233 461 c 0
 233 500 264 530 301 530 c 0
 339 530 369 500 369 461 c 0
 369 423 340 393 301 393 c 0
EndSplineSet
EndChar
StartChar: oslash
Encoding: 249 248 146
Width: 602
Flags: MW
HStem: -12 104<291.5 339.5 291.5 382> 360 102<264.5 310.5>
VStem: 34 136<211 264.5 211 292.5> 431 136<187.5 243>
LayerCount: 2
Fore
SplineSet
195 145 m 1
 340 354 l 1
 327 358 315 360 306 360 c 0
 223 360 170 303 170 226 c 0
 170 196 178 170 195 145 c 1
400 316 m 1
 251 101 l 1
 267 94 283 92 300 92 c 0
 379 92 431 149 431 226 c 0
 431 260 422 289 400 316 c 1
184 10 m 1
 135 -62 l 2
 130 -69 120 -74 111 -74 c 0
 94 -74 74 -59 74 -33 c 0
 74 -30 75 -28 77 -25 c 2
 123 43 l 1
 63 94 34 152 34 225 c 0
 34 360 139 462 301 462 c 0
 337 462 371 458 405 445 c 1
 444 504 l 2
 449 511 457 516 467 516 c 0
 484 516 504 501 504 475 c 0
 504 472 503 469 501 466 c 2
 468 415 l 1
 531 373 567 302 567 225 c 0
 567 90 463 -12 301 -12 c 0
 260 -12 223 -7 184 10 c 1
EndSplineSet
EndChar
StartChar: thorn
Encoding: 330 254 223
Width: 602
Flags: MW
HStem: -194 107<42 92 63 92 208 270> 3 102<314.5 352.5 289 405> 359 104<310.5 353> 531 108<66.5 171 84 171>
VStem: 92 116<-87 46 -87 531> 432 134<195 269.5>
LayerCount: 2
Fore
SplineSet
210 232 m 0
 210 157 257 105 321 105 c 0
 384 105 432 158 432 232 c 0
 432 307 385 359 321 359 c 0
 257 359 210 307 210 232 c 0
270 -87 m 2
 311 -87 331 -100 331 -141 c 0
 331 -182 311 -194 270 -194 c 2
 63 -194 l 2
 21 -194 2 -182 2 -141 c 0
 2 -100 22 -87 63 -87 c 2
 92 -87 l 1
 92 531 l 1
 89 531 87 531 84 531 c 0
 49 531 31 550 31 585 c 0
 31 626 50 639 92 639 c 2
 171 639 l 2
 190 639 200 631 200 618 c 2
 200 396 l 1
 233 440 281 463 340 463 c 0
 469 463 566 366 566 238 c 0
 566 101 469 3 341 3 c 0
 288 3 242 18 208 46 c 1
 208 -87 l 1
 270 -87 l 2
EndSplineSet
EndChar
StartChar: dotlessi
Encoding: 245 305 144
Width: 602
Flags: MW
HStem: 0 107<123.5 249 144 249 369 474> 344 107<173.5 341 194 249>
VStem: 249 120<107 344 344 344>
LayerCount: 2
Fore
SplineSet
341 451 m 2
 359 451 369 443 369 430 c 2
 369 107 l 1
 474 107 l 2
 515 107 536 95 536 54 c 0
 536 13 515 0 474 0 c 2
 144 0 l 2
 103 0 82 13 82 54 c 0
 82 95 103 107 144 107 c 2
 249 107 l 1
 249 344 l 1
 194 344 l 2
 153 344 133 357 133 398 c 0
 133 439 153 451 194 451 c 2
 341 451 l 2
EndSplineSet
EndChar
StartChar: Lslash
Encoding: 232 321 139
Width: 602
Flags: MW
HStem: 0 107<61 124 81 124 247 469> 471 108<61 290 81 124 247 247 247 290>
VStem: 124 123<107 204 204 204 355 471> 469 106<107 194>
LayerCount: 2
Fore
SplineSet
81 0 m 2
 41 0 22 14 22 54 c 0
 22 94 41 107 81 107 c 2
 124 107 l 1
 124 204 l 1
 94 185 l 2
 86 180 79 177 71 177 c 0
 51 177 33 199 33 217 c 0
 33 230 41 238 55 247 c 2
 124 292 l 1
 124 471 l 1
 81 471 l 2
 41 471 22 485 22 525 c 0
 22 564 41 579 81 579 c 2
 290 579 l 2
 330 579 350 564 350 525 c 0
 350 485 330 471 290 471 c 2
 247 471 l 1
 247 355 l 1
 350 420 l 2
 358 425 367 428 374 428 c 0
 394 428 411 406 411 387 c 0
 411 368 400 364 389 357 c 2
 247 267 l 1
 247 107 l 1
 469 107 l 1
 469 194 l 2
 469 236 483 256 522 256 c 0
 562 256 575 235 575 194 c 2
 575 44 l 2
 575 9 565 0 524 0 c 2
 81 0 l 2
EndSplineSet
EndChar
StartChar: lslash
Encoding: 248 322 145
Width: 602
Flags: MW
HStem: 0 107<114.5 240 135 240 361 466> 531 108<165.5 332 186 240>
VStem: 240 121<107 258 258 258 402 531 531 531>
LayerCount: 2
Fore
SplineSet
240 258 m 1
 145 195 l 2
 138 190 132 186 122 186 c 0
 106 186 89 206 89 222 c 0
 89 235 98 241 110 249 c 2
 240 336 l 1
 240 531 l 1
 186 531 l 2
 145 531 124 544 124 585 c 0
 124 626 145 639 186 639 c 2
 332 639 l 2
 350 639 361 631 361 618 c 2
 361 402 l 1
 456 464 l 2
 463 469 469 474 479 474 c 0
 495 474 511 454 511 438 c 0
 511 425 503 419 491 411 c 2
 361 324 l 1
 361 107 l 1
 466 107 l 2
 507 107 527 95 527 54 c 0
 527 13 507 0 466 0 c 2
 135 0 l 2
 94 0 74 13 74 54 c 0
 74 95 94 107 135 107 c 2
 240 107 l 1
 240 258 l 1
EndSplineSet
EndChar
StartChar: OE
Encoding: 234 338 141
Width: 602
Flags: MW
HStem: 0 104<214.5 313 214.5 334 374 517> 260 83<374 413 374 413> 476 103<273 563 374 374 374 517>
VStem: 7 124<230.5 350> 273 101<106 260 343 476> 413 75<258 259 259 260> 517 88<104 162 425 476 476 476>
LayerCount: 2
Fore
SplineSet
273 476 m 1
 267 477 261 477 255 477 c 0
 175 477 131 412 131 290 c 0
 131 170 177 104 252 104 c 0
 259 104 266 105 273 106 c 1
 273 476 l 1
334 0 m 2
 326 0 317 0 309 0 c 0
 245 0 188 2 139 29 c 0
 57 76 7 171 7 290 c 0
 7 410 59 508 139 552 c 0
 187 579 251 579 333 579 c 2
 563 579 l 2
 599 579 605 567 605 534 c 2
 605 425 l 2
 605 384 594 363 561 363 c 0
 527 363 517 385 517 425 c 2
 517 476 l 1
 374 476 l 1
 374 343 l 1
 413 343 l 1
 413 346 413 349 413 351 c 0
 413 379 426 394 450 394 c 0
 478 394 488 377 488 343 c 2
 488 259 l 2
 488 225 478 208 450 208 c 0
 427 208 412 223 412 250 c 0
 412 253 413 256 413 260 c 1
 374 260 l 1
 374 104 l 1
 517 104 l 1
 517 162 l 2
 517 203 528 223 561 223 c 0
 595 223 605 203 605 162 c 2
 605 44 l 2
 605 11 599 0 563 0 c 2
 334 0 l 2
EndSplineSet
EndChar
StartChar: oe
Encoding: 250 339 147
Width: 602
Flags: W
HStem: -12 103<170 204 427 481.5> 197 76<376 487 376 553 376 487> 359 103<169.5 204 125 210.5> 368 94<416 446>
VStem: 2 115<184 267.5 184 296> 263 113<197 197 197 267.5> 487 113<273 273>
LayerCount: 2
Fore
SplineSet
190 91 m 0xee
 230 91 263 142 263 226 c 0
 263 309 231 359 190 359 c 0
 149 359 117 309 117 226 c 0
 117 142 150 91 190 91 c 0xee
376 273 m 1x56
 487 273 l 1
 482 336 461 368 431 368 c 0
 401 368 381 336 376 273 c 1x56
308 62 m 1xee
 276 13 232 -12 176 -12 c 0
 74 -12 2 83 2 225 c 0
 2 367 74 462 176 462 c 0
 232 462 273 439 308 389 c 1
 339 438 382 462 438 462 c 0
 535 462 600 372 600 245 c 0
 600 206 589 197 553 197 c 2
 376 197 l 1
 377 126 402 91 452 91 c 0
 511 91 534 143 561 143 c 0
 579 143 600 120 600 98 c 0
 600 51 531 -12 443 -12 c 0
 384 -12 338 13 308 62 c 1xee
EndSplineSet
EndChar
StartChar: florin
Encoding: 166 402 100
Width: 602
Flags: MW
HStem: -139 106<128.5 163 128.5 202> 317 81<166.5 255 188 246 382 449> 526 106<437.5 472.5>
VStem: 40 521
LayerCount: 2
Fore
SplineSet
336 33 m 2
 321 -87 263 -139 141 -139 c 0
 71 -139 40 -121 40 -77 c 0
 40 -49 57 -31 91 -31 c 0
 105 -31 120 -33 137 -33 c 0
 189 -33 206 -14 212 37 c 2
 246 317 l 1
 173 317 l 2
 160 317 147 330 147 351 c 0
 147 384 160 398 188 398 c 2
 255 398 l 1
 265 460 l 2
 283 581 335 632 459 632 c 0
 529 632 561 614 561 570 c 0
 561 542 544 524 510 524 c 0
 496 524 481 526 464 526 c 0
 411 526 396 507 389 456 c 2
 382 398 l 1
 463 398 l 2
 476 398 490 386 490 364 c 0
 490 332 477 317 449 317 c 2
 372 317 l 1
 336 33 l 2
EndSplineSet
EndChar
StartChar: circumflex
Encoding: 195 710 125
Width: 602
Flags: MW
HStem: 508 153<146.5 307 295 455.5>
VStem: 130 342<526.5 534.5>
LayerCount: 2
Fore
SplineSet
331 652 m 2
 466 545 l 2
 470 542 472 537 472 532 c 0
 472 521 462 508 449 508 c 0
 447 508 444 509 441 510 c 2
 301 575 l 1
 161 510 l 2
 158 509 155 508 153 508 c 0
 140 508 130 521 130 532 c 0
 130 537 132 542 136 545 c 2
 271 652 l 2
 279 658 289 661 301 661 c 0
 313 661 323 658 331 652 c 2
EndSplineSet
EndChar
StartChar: caron
Encoding: 207 711 135
Width: 602
Flags: MW
HStem: 510 153<146.5 307>
VStem: 130 342<636.5 644.5>
LayerCount: 2
Fore
SplineSet
271 520 m 2
 136 626 l 2
 132 629 130 634 130 639 c 0
 130 650 140 663 153 663 c 0
 155 663 158 662 161 661 c 2
 301 597 l 1
 441 661 l 2
 444 662 447 663 449 663 c 0
 462 663 472 650 472 639 c 0
 472 634 470 629 466 626 c 2
 331 520 l 2
 323 514 313 510 301 510 c 0
 289 510 279 514 271 520 c 2
EndSplineSet
EndChar
StartChar: breve
Encoding: 198 728 128
Width: 602
Flags: MW
HStem: 529 74<271.5 330 271.5 360.5>
VStem: 114 374<615 648>
LayerCount: 2
Fore
SplineSet
301 603 m 0
 359 603 399 609 422 622 c 0
 444 635 451 660 474 660 c 0
 484 660 488 655 488 641 c 0
 488 589 420 529 301 529 c 0
 182 529 114 589 114 641 c 0
 114 655 118 660 128 660 c 0
 150 660 157 635 180 622 c 0
 201 610 242 603 301 603 c 0
EndSplineSet
EndChar
StartChar: dotaccent
Encoding: 199 729 129
Width: 602
Flags: MW
HStem: 523 132<283.5 319 283.5 319.5>
VStem: 235 132<571.5 607.5>
LayerCount: 2
Fore
SplineSet
235 590 m 0
 235 625 266 655 301 655 c 0
 337 655 367 626 367 590 c 0
 367 552 338 523 301 523 c 0
 264 523 235 553 235 590 c 0
EndSplineSet
EndChar
StartChar: ring
Encoding: 202 730 131
Width: 602
Flags: MW
HStem: 500 70<283.5 318 283.5 337.5> 695 69<283.5 318>
VStem: 169 69<615.5 650 615.5 668.5> 363 70<615.5 650>
LayerCount: 2
Fore
SplineSet
169 632 m 0
 169 705 227 764 301 764 c 0
 374 764 433 705 433 632 c 0
 433 558 374 500 301 500 c 0
 228 500 169 558 169 632 c 0
238 633 m 0
 238 598 266 570 301 570 c 0
 335 570 363 598 363 633 c 0
 363 667 335 695 301 695 c 0
 266 695 238 667 238 633 c 0
EndSplineSet
EndChar
StartChar: ogonek
Encoding: 206 731 134
Width: 602
Flags: MW
HStem: -228 63<299 381>
VStem: 241 87<-131 -124.5>
LayerCount: 2
Fore
SplineSet
408 15 m 1
 355 -29 328 -68 328 -115 c 0
 328 -147 343 -165 369 -165 c 0
 393 -165 406 -155 423 -131 c 1
 440 -141 l 1
 413 -199 375 -228 325 -228 c 0
 273 -228 241 -199 241 -154 c 0
 241 -95 287 -41 380 15 c 1
 408 15 l 1
EndSplineSet
EndChar
StartChar: tilde
Encoding: 196 732 126
Width: 602
Flags: W
HStem: 537 69<386 400> 566 69<201.5 216.5>
VStem: 123 356<546.5 625.5>
LayerCount: 2
Fore
SplineSet
350 613 m 2x60
 367 609 381 606 391 606 c 0
 430 606 438 640 459 640 c 0
 471 640 479 632 479 619 c 0
 479 587 434 537 366 537 c 0xa0
 348 537 328 540 307 545 c 2
 252 560 l 2
 237 564 223 566 210 566 c 0
 171 566 164 533 142 533 c 0
 129 533 123 540 123 553 c 0
 123 585 167 635 236 635 c 0
 255 635 274 633 294 628 c 2
 350 613 l 2x60
EndSplineSet
EndChar
StartChar: hungarumlaut
Encoding: 205 733 133
Width: 602
Flags: W
HStem: 503 163<193 325.5 319.5 357>
VStem: 166 205<530 614> 329 205<530 614>
LayerCount: 2
Fore
SplineSet
166 530 m 1xc0
 303 655 l 2
 311 662 317 666 322 666 c 0
 329 666 335 662 339 657 c 2
 366 625 l 2
 369 621 371 616 371 612 c 0
 371 605 367 600 359 595 c 2
 193 503 l 1
 166 530 l 1xc0
329 530 m 1xa0
 466 655 l 2
 474 662 480 666 485 666 c 0
 492 666 498 662 502 657 c 2
 529 625 l 2
 532 621 534 616 534 612 c 0
 534 605 530 600 522 595 c 2
 357 503 l 1
 329 530 l 1xa0
EndSplineSet
EndChar
StartChar: endash
Encoding: 177 8211 110
Width: 602
Flags: MW
HStem: 179 93<-6 602 0 602>
VStem: -22 647<206 248 198.5 255>
LayerCount: 2
Fore
SplineSet
602 272 m 2
 617 272 625 263 625 248 c 2
 625 206 l 2
 625 191 614 179 602 179 c 2
 0 179 l 2
 -12 179 -22 189 -22 206 c 2
 -22 248 l 2
 -22 262 -12 272 0 272 c 2
 602 272 l 2
EndSplineSet
EndChar
StartChar: emdash
Encoding: 208 8212 136
Width: 602
Flags: MW
HStem: 179 93<-6.5 602 0 602>
VStem: -22 647<206 248 198.5 255>
LayerCount: 2
Fore
SplineSet
0 272 m 2
 602 272 l 2
 617 272 625 263 625 248 c 2
 625 206 l 2
 625 191 614 179 602 179 c 2
 0 179 l 2
 -13 179 -22 189 -22 206 c 2
 -22 248 l 2
 -22 262 -12 272 0 272 c 2
EndSplineSet
EndChar
StartChar: quoteleft
Encoding: 96 8216 64
Width: 602
Flags: MW
HStem: 328 268<211.5 345.5 216 345.5>
VStem: 202 196
LayerCount: 2
Fore
SplineSet
340 350 m 2
 335 333 330 328 312 328 c 2
 216 328 l 2
 207 328 202 332 202 337 c 0
 202 339 203 343 206 348 c 2
 325 582 l 2
 330 591 336 596 344 596 c 0
 347 596 350 595 353 594 c 2
 384 583 l 2
 393 580 398 574 398 567 c 0
 398 563 397 560 396 557 c 2
 340 350 l 2
EndSplineSet
EndChar
StartChar: quoteright
Encoding: 39 8217 7
Width: 602
Flags: MW
HStem: 311 268<258.5 388>
VStem: 207 195
LayerCount: 2
Fore
SplineSet
265 556 m 2
 270 573 274 579 292 579 c 2
 388 579 l 2
 397 579 402 575 402 570 c 0
 402 568 402 563 399 558 c 2
 279 325 l 2
 274 316 268 311 260 311 c 0
 257 311 255 311 252 312 c 2
 221 323 l 2
 212 326 207 332 207 339 c 0
 207 343 207 346 208 349 c 2
 265 556 l 2
EndSplineSet
EndChar
StartChar: quotesinglbase
Encoding: 184 8218 116
Width: 602
Flags: MW
HStem: -158 267<248.5 378>
VStem: 197 195
LayerCount: 2
Fore
SplineSet
378 109 m 2
 387 109 392 105 392 100 c 0
 392 98 391 94 388 89 c 2
 269 -145 l 2
 265 -154 258 -158 250 -158 c 0
 247 -158 244 -158 241 -157 c 2
 211 -146 l 2
 202 -143 197 -137 197 -130 c 0
 197 -126 197 -123 198 -120 c 2
 255 87 l 2
 260 104 264 109 282 109 c 2
 378 109 l 2
EndSplineSet
EndChar
StartChar: quotedblleft
Encoding: 170 8220 104
Width: 602
Flags: W
HStem: 328 268<107.5 241.5 112 241.5 236 304 236 400>
VStem: 98 196 290 195
LayerCount: 2
Fore
SplineSet
235 350 m 2xc0
 230 333 226 328 208 328 c 2
 112 328 l 2
 103 328 98 332 98 337 c 0
 98 339 99 343 102 348 c 2
 221 582 l 2
 226 591 232 596 240 596 c 0
 243 596 246 595 249 594 c 2
 279 583 l 2
 288 580 294 574 294 567 c 0
 294 563 293 560 292 557 c 2
 235 350 l 2xc0
427 350 m 2xa0
 422 333 418 328 400 328 c 2
 304 328 l 2
 295 328 290 332 290 337 c 0
 290 339 290 343 293 348 c 2
 412 582 l 2
 417 591 423 596 431 596 c 0
 434 596 437 595 440 594 c 2
 471 583 l 2
 480 580 485 574 485 567 c 0
 485 563 485 560 484 557 c 2
 427 350 l 2xa0
EndSplineSet
EndChar
StartChar: quotedblright
Encoding: 186 8221 118
Width: 602
Flags: W
HStem: 311 268<162.5 292 197 359>
VStem: 111 195 303 195<558 572.5>
LayerCount: 2
Fore
SplineSet
169 556 m 2xc0
 174 573 179 579 197 579 c 2
 292 579 l 2
 301 579 306 575 306 570 c 0xc0
 306 568 306 563 303 558 c 2xa0
 184 325 l 2
 179 316 172 311 164 311 c 0
 161 311 159 311 156 312 c 2
 125 323 l 2
 116 326 111 332 111 339 c 0
 111 343 111 346 112 349 c 2
 169 556 l 2xc0
361 556 m 2xa0
 366 573 370 579 388 579 c 2
 484 579 l 2
 493 579 498 575 498 570 c 0
 498 568 497 563 494 558 c 2
 375 325 l 2
 370 316 363 311 355 311 c 0
 352 311 350 311 347 312 c 2
 317 323 l 2
 308 326 303 332 303 339 c 0
 303 343 303 346 304 349 c 2
 361 556 l 2xa0
EndSplineSet
EndChar
StartChar: quotedblbase
Encoding: 185 8222 117
Width: 602
Flags: W
HStem: -158 267<155.5 285 189 353>
VStem: 103 196 295 195<89 102.5>
LayerCount: 2
Fore
SplineSet
161 87 m 2xc0
 166 104 171 109 189 109 c 2
 285 109 l 2
 294 109 299 105 299 100 c 0xc0
 299 98 298 94 295 89 c 2xa0
 176 -145 l 2
 172 -154 165 -158 157 -158 c 0
 154 -158 151 -158 148 -157 c 2
 117 -146 l 2
 108 -143 103 -137 103 -130 c 0
 103 -126 104 -123 105 -120 c 2
 161 87 l 2xc0
353 87 m 2xa0
 358 104 363 109 381 109 c 2
 476 109 l 2
 485 109 490 105 490 100 c 0
 490 98 490 94 487 89 c 2
 368 -145 l 2
 364 -154 357 -158 349 -158 c 0
 346 -158 343 -158 340 -157 c 2
 309 -146 l 2
 300 -143 295 -137 295 -130 c 0
 295 -126 295 -123 296 -120 c 2
 353 87 l 2xa0
EndSplineSet
EndChar
StartChar: dagger
Encoding: 178 8224 111
Width: 602
Flags: MW
HStem: -14 20 350 101<144.5 245 151 245 360 451> 575 20<282.5 320>
VStem: 245 115<31 350 451 551>
LayerCount: 2
Fore
SplineSet
360 31 m 2
 360 4 341 -14 304 -14 c 0
 266 -14 245 6 245 31 c 2
 245 350 l 1
 151 350 l 2
 138 350 121 368 121 400 c 0
 121 433 140 451 151 451 c 2
 245 451 l 1
 245 551 l 2
 245 578 264 595 301 595 c 0
 339 595 360 576 360 551 c 2
 360 451 l 1
 451 451 l 2
 464 451 481 433 481 401 c 0
 481 368 462 350 451 350 c 2
 360 350 l 1
 360 31 l 2
EndSplineSet
EndChar
StartChar: daggerdbl
Encoding: 179 8225 112
Width: 602
Flags: MW
HStem: -15 20 130 101<147.5 245 154 245> 350 101<144.5 245 151 245 360 451> 575 20<282.5 320>
VStem: 245 115<30 129 16.5 130 16.5 130 231 350 451 551>
LayerCount: 2
Fore
SplineSet
360 231 m 1
 454 231 l 2
 467 231 484 213 484 181 c 0
 484 148 465 129 454 129 c 2
 360 129 l 1
 360 30 l 2
 360 3 341 -15 304 -15 c 0
 266 -15 245 5 245 30 c 2
 245 130 l 1
 154 130 l 2
 141 130 125 147 125 179 c 0
 125 212 143 231 154 231 c 2
 245 231 l 1
 245 350 l 1
 151 350 l 2
 138 350 121 368 121 400 c 0
 121 433 140 451 151 451 c 2
 245 451 l 1
 245 551 l 2
 245 578 264 595 301 595 c 0
 339 595 360 576 360 551 c 2
 360 451 l 1
 451 451 l 2
 464 451 481 433 481 401 c 0
 481 368 462 350 451 350 c 2
 360 350 l 1
 360 231 l 1
EndSplineSet
EndChar
StartChar: perthousand
Encoding: 189 8240 121
Width: 602
Flags: W
HStem: -16 74<192 232 192 254 501 541> 176 74<192 232 501 541> 366 74<80 120 80 142> 559 73<80 120>
VStem: -44 78<481.5 516.5 481.5 536.5> 69 78<99.5 134.5 99.5 154.5> 166 77<481.5 516> 278 78<99.5 134> 377 78<99.5 134.5 99.5 154.5> 586 78<99.5 134>
LayerCount: 2
Fore
SplineSet
-44 499 m 0
 -44 574 16 632 100 632 c 0
 184 632 243 574 243 499 c 0
 243 423 184 366 100 366 c 0
 16 366 -44 424 -44 499 c 0
166 499 m 0
 166 533 140 559 100 559 c 0
 60 559 34 534 34 499 c 0
 34 464 60 440 100 440 c 0
 140 440 166 464 166 499 c 0
-21 272 m 2
 307 402 l 2
 312 404 316 405 320 405 c 0
 338 405 350 391 350 372 c 0
 350 361 342 350 330 345 c 2
 2 214 l 2
 -3 212 -7 211 -11 211 c 0
 -29 211 -41 227 -41 246 c 0
 -41 257 -34 267 -21 272 c 2
69 117 m 0xffc0
 69 192 128 250 212 250 c 0
 296 250 356 192 356 117 c 0
 356 41 296 -16 212 -16 c 0
 127 -16 69 42 69 117 c 0xffc0
278 117 m 0
 278 151 252 176 212 176 c 0
 172 176 147 152 147 117 c 0
 147 82 172 58 212 58 c 0
 252 58 278 82 278 117 c 0
377 117 m 0
 377 192 437 250 521 250 c 0
 605 250 664 192 664 117 c 0
 664 41 605 -16 521 -16 c 0
 436 -16 377 42 377 117 c 0
586 117 m 0
 586 151 561 176 521 176 c 0
 481 176 455 152 455 117 c 0
 455 82 481 58 521 58 c 0
 561 58 586 82 586 117 c 0
EndSplineSet
EndChar
StartChar: guilsinglleft
Encoding: 172 8249 106
Width: 602
Flags: MW
HStem: 36 374<333 349.5 333 349.5>
VStem: 224 155<62.5 228.5>
LayerCount: 2
Fore
SplineSet
314 223 m 1
 375 91 l 2
 377 86 379 79 379 73 c 0
 379 52 360 36 339 36 c 0
 326 36 313 44 308 53 c 2
 231 203 l 2
 226 212 224 219 224 225 c 0
 224 232 226 240 231 249 c 2
 308 394 l 2
 313 403 327 410 339 410 c 0
 360 410 379 394 379 373 c 0
 379 367 377 361 375 356 c 2
 314 223 l 1
EndSplineSet
EndChar
StartChar: guilsinglright
Encoding: 173 8250 107
Width: 602
Flags: MW
HStem: 36 374<252.5 269>
VStem: 222 156<62.5 224 217.5 383.5>
LayerCount: 2
Fore
SplineSet
287 223 m 1
 226 356 l 2
 224 361 222 367 222 373 c 0
 222 394 242 410 263 410 c 0
 276 410 288 403 293 394 c 2
 371 244 l 2
 376 235 378 227 378 221 c 0
 378 214 376 206 371 197 c 2
 293 53 l 2
 288 44 275 36 263 36 c 0
 242 36 222 52 222 73 c 0
 222 79 224 86 226 91 c 2
 287 223 l 1
EndSplineSet
EndChar
StartChar: fraction
Encoding: 164 8260 98
Width: 602
Flags: MW
HStem: -58 20 682 20<444 467.5>
VStem: 104 408
LayerCount: 2
Fore
SplineSet
212 -6 m 2
 197 -39 183 -58 161 -58 c 0
 136 -58 104 -40 104 -9 c 0
 104 5 110 20 118 38 c 2
 404 650 l 2
 419 683 433 702 455 702 c 0
 480 702 512 684 512 653 c 0
 512 639 506 625 498 607 c 2
 212 -6 l 2
EndSplineSet
EndChar
StartChar: trademark
Encoding: 312 8482 205
Width: 602
Flags: MW
HStem: 329 56<79 121 89 121 187 219 301 307 484 487> 534 55<87 121 87 87 187 221 187 187 308 313 534 539.5>
VStem: 121 66<385 534 385 534> 307 54<385 385> 487 56<385 385>
LayerCount: 2
Fore
SplineSet
275 489 m 2
 275 488 275 487 275 486 c 0
 275 468 267 460 250 460 c 0
 230 460 224 467 223 489 c 2
 221 534 l 1
 187 534 l 1
 187 385 l 1
 219 385 l 2
 239 385 248 377 248 357 c 0
 248 337 239 329 219 329 c 2
 89 329 l 2
 69 329 60 337 60 357 c 0
 60 377 69 385 89 385 c 2
 121 385 l 1
 121 534 l 1
 87 534 l 1
 86 489 l 2
 85 468 78 460 59 460 c 0
 41 460 33 468 33 486 c 0
 33 487 33 488 33 489 c 2
 35 562 l 2
 36 584 37 589 60 589 c 2
 249 589 l 2
 272 589 272 584 273 562 c 2
 275 489 l 2
311 329 m 2
 291 329 282 338 282 357 c 0
 282 374 292 385 307 385 c 1
 313 534 l 1
 298 534 289 545 289 562 c 0
 289 579 299 589 308 589 c 2
 359 589 l 2
 374 589 382 582 388 566 c 2
 424 461 l 1
 459 566 l 2
 465 583 474 589 489 589 c 2
 530 589 l 2
 549 589 559 581 559 562 c 0
 559 545 548 534 534 534 c 1
 541 385 l 2
 542 385 542 385 543 385 c 0
 557 385 565 374 565 357 c 0
 565 338 555 329 536 329 c 2
 487 329 l 2
 465 329 454 337 454 357 c 0
 454 375 465 385 484 385 c 0
 485 385 486 385 487 385 c 1
 484 511 l 1
 452 412 l 2
 447 397 438 391 424 391 c 0
 410 391 401 397 396 412 c 2
 364 511 l 1
 361 385 l 1
 362 385 363 385 365 385 c 0
 380 385 390 374 390 357 c 0
 390 338 380 329 361 329 c 2
 311 329 l 2
EndSplineSet
EndChar
StartChar: fi
Encoding: 174 64257 108
Width: 602
Flags: W
HStem: 0 107<76 84 76 84 205 223 387 395> 344 107<76 77 76 84 205 223> 519 153<425 474> 540 99<253 284.5>
VStem: 84 121<0 344 107 344 107 344 451 466 463.5 482> 391 114<561.5 616> 395 121<0 0 107 344 344 344>
LayerCount: 2
Fore
SplineSet
84 344 m 1xda
 81 344 78 344 76 344 c 0
 40 344 22 363 22 398 c 0
 22 433 40 451 76 451 c 0
 78 451 81 451 84 451 c 1
 84 456 84 461 84 466 c 0
 84 580 149 639 276 639 c 0
 338 639 368 622 368 585 c 0
 368 555 351 539 324 539 c 0
 303 539 288 540 281 540 c 0
 225 540 205 513 205 451 c 1
 223 451 l 2
 264 451 286 439 286 398 c 0
 286 357 264 344 223 344 c 2
 205 344 l 1
 205 107 l 1
 223 107 l 2
 264 107 285 95 285 54 c 0
 285 13 264 0 223 0 c 2
 84 0 l 2
 43 0 22 13 22 54 c 0
 22 89 40 107 76 107 c 0
 78 107 81 107 84 107 c 1
 84 344 l 1xda
391 577 m 0x24
 391 655 398 672 448 672 c 0
 500 672 505 654 505 593 c 0
 505 530 500 519 448 519 c 0
 402 519 391 527 391 577 c 0x24
395 344 m 1xda
 392 344 390 344 387 344 c 0
 352 344 334 363 334 398 c 0
 334 439 354 451 395 451 c 2
 487 451 l 2
 505 451 516 443 516 430 c 2
 516 107 l 1
 519 107 522 107 524 107 c 0
 559 107 577 89 577 54 c 0
 577 13 557 0 516 0 c 2
 395 0 l 2
 354 0 334 13 334 54 c 0
 334 89 352 107 387 107 c 0
 389 107 392 107 395 107 c 1
 395 344 l 1xda
EndSplineSet
EndChar
StartChar: fl
Encoding: 175 64258 109
Width: 602
Flags: MW
HStem: 0 107<76 84 76 84 205 223 387 395> 344 107<76 77 76 84 205 223> 541 98<285.5 334 333 341 341 395>
VStem: 84 121<0 344 107 344 107 344 107 467 107 523.5> 395 121<0 0 107 541 541 541>
LayerCount: 2
Fore
SplineSet
84 344 m 1
 81 344 78 344 76 344 c 0
 40 344 22 363 22 398 c 0
 22 433 40 451 76 451 c 0
 78 451 81 451 84 451 c 1
 84 456 84 462 84 467 c 0
 84 580 148 639 276 639 c 2
 487 639 l 2
 505 639 516 631 516 618 c 2
 516 107 l 1
 519 107 522 107 524 107 c 0
 559 107 577 89 577 54 c 0
 577 13 557 0 516 0 c 2
 395 0 l 2
 354 0 334 13 334 54 c 0
 334 89 352 107 387 107 c 0
 389 107 392 107 395 107 c 1
 395 541 l 1
 341 541 l 2
 339 541 335 541 333 541 c 0
 238 541 206 538 205 451 c 1
 223 451 l 2
 264 451 286 439 286 398 c 0
 286 357 264 344 223 344 c 2
 205 344 l 1
 205 107 l 1
 223 107 l 2
 264 107 285 95 285 54 c 0
 285 13 264 0 223 0 c 2
 84 0 l 2
 43 0 22 13 22 54 c 0
 22 89 40 107 76 107 c 0
 78 107 81 107 84 107 c 1
 84 344 l 1
EndSplineSet
EndChar
